<?xml version="1.0"?>
    
<!--********* Copyright (c) 2024 Pareto Softare, LLC DBA Simplemaps.com ***************************************
************* Free for Commercial Use, full terms at  https://simplemaps.com/resources/svg-license ************
************* Attribution is appreciated! https://simplemaps.com *******************************************-->

<svg baseprofile="tiny" fill="#6f9c76" height="1000" stroke="#ffffff" stroke-linecap="round" stroke-linejoin="round" stroke-width=".5" version="1.2" viewbox="0 0 1000 1000" width="1000" xmlns="http://www.w3.org/2000/svg">
 <g id="features">
  <path d="M171.9 241.8l1.6-4 1.1-2.1 0.4-1.1 0.4-1.7-0.1-1.4-0.4-3.7 0.2-1.2 0.9-1 2.1-0.5 0.9-0.5 0.9-1.4 0.4-1.3 0.5-1.1 1.4-0.9 2.7-0.1 2.4 1.1 2.3 0.6 2.5-1.8 1-1.4 0.4-0.6 0.3-0.8-0.1-1.7 0.6-1.2 1.1-0.7 1.3-0.4 0.7-1.4 1-0.8 0.9-0.5 0.7-0.8 0.6-1.3 0.1-1.1 0.1-1.1 0.1-1.6 1.1-4.7 0.4-2.5-0.1-2.6-0.7-2.4-1.1-1.9-2.7-3.3-2.9-2.8-0.5-1-0.2-1.1-0.4-1.1-1-0.8 1.8-2.1 0.6-2.9-0.1-6.4 15-0.6 7.3-2.2 2.7 0.1 3.8 0.8 1.5 0.3 3.6 0 3.5-0.7 1.6-0.9 3.7-3.7 2.4-1.1 2.5-0.1 7.9 1.1 0.4 0.1 4.5 4 2.9 0.6 0.9-0.6 2.4-2.4 1-0.8 0.6-0.1 1.5 0.1 0.5-0.2 0.4-0.8 0.2-1.7 0.2-0.6 2.9-1.3 5.3 1.2 2.1-0.4 0.7 4.7 3.5 1.7 1.6 1.7-0.3 1.8-1.8 1.6-2 0.8-3.9 0.9-3.7-0.2-0.7 1.7 1.6 1.8 1.6 6.2 1.1 2 3.6 1.3 0 1.9-2.4 5.9 1.7 0.6 1.9 0 4.3 1.4 1.8-0.1 1.7 1 2.3 0-2.5 5.9 0.1 3.8 2.8 3.7-1.4 3.5 0.1 1.9 1.6 1.4 2.3 4.4 1.5 1.7 3.8 1.8 3.4 2.3 0 1.9 1.7 1 5.8-0.9 0.8 2-0.3 1.8 0.4 1.9 3.4 3.9 0.5 3.8 1.1 2 4.8 2.3-1.6 3-0.3 4-1.4 1.6-4.1 2-0.7 2 0.3 2.7-2.4 2.9-0.9 3.5-3.1 5-5 5.1-0.9 3.5-2.1 3.7-4.1 2.3-4.9 4.7-2.1 1.5 3.4 2.1 0.7 1.9-0.3 1.8 0.9 3.8-0.3 1.8-1.3 1.2-5.4-0.8-7.7 1.7-3.7-0.2-10.3-2.8-15.1-2-4 1.6-2.1 1.5-2.4 3.3-2 1.2-4.3 1.5-1.9 0.1-1.3-1.3 0-1.8-6.8-4-3.6-0.2-5.8 1.3-3.9 1.6-1.8-0.6-1.9-4-1.4-7.5-3.2-3 2.7-5.5 0.2-4-1.6-1.3-4 1.9-2.8-3.7-1.3-5.7-1.6-1.3 2.6-4.8 0.3-2.1-1.3-5.7-2.8-6-4.4-5.4-2-6.2-1.5-2.1-3.9 0.9-1.3 1.7-2.1 1.1-1.9 0.1-1.2-0.9-0.3-0.5z" id="GRC" name="Dytiki Makedonia">
  </path>
  <path d="M171.9 241.8l0.3 0.5 1.2 0.9 1.9-0.1 2.1-1.1 1.3-1.7 3.9-0.9 1.5 2.1 2 6.2 4.4 5.4 2.8 6 1.3 5.7-0.3 2.1-2.6 4.8 1.6 1.3 1.3 5.7 2.8 3.7 4-1.9 1.6 1.3-0.2 4-2.7 5.5 3.2 3 1.4 7.5 1.9 4 1.8 0.6 3.9-1.6 5.8-1.3 3.6 0.2 6.8 4 0 1.8-2.8-0.8-1.9 0.8-1.1 1.7-2 1.1-1 2-0.7 1.8 1.7 7.9 0.1 3.7-1.8 0.1-1.6-1.4-4.1-0.2-2 1.1-1.3 1.6 1.1 4.2 0.2 3.7 1.5 2.1 1.7 0.6 1.2 2-0.6 3.5 0.9 3.8-1.4 1.6-0.3 1.8 1.6 2 0.7 2.3-0.4 2.2 0.8 2.3 4.8 4 1.5 4.6 3.6 2.7 5.4 0.8 1.9-0.4 2.4 2.9 1.6 3.9-5.4 10.4 0.4 2.2 2.7 4-2.4 0.8-5.4 4.6-4 1.9-1.9 0.4-12.8 0.2-2 0.8-1.7 1.6-1 3.5 0.1 1.4-0.5 0.3-1.8 2 2.1 1.7-5.7-0.8 0-0.9-1.2-0.3-1.2-0.8-1-0.9-0.4-0.3-1.2 0.7-1-0.6-0.7-1.2-0.3-1.2 0.2 0 0.3-0.6 0.9-0.2 0-0.9-0.7 0-1 0.6-1.2 0.1-1.1-0.6-0.8-1.1-0.8 0-0.6 1.3-1.8 1.1-0.4 0.8 0.5 1.3 1.1 0.3 0.5 0.6-4.3-0.1 1.5-0.7-0.2-0.9 0-1.3-0.3-0.9-0.9 0.4 0-0.5-0.1-0.3 0-0.3 0.2-0.1-0.1-0.7-0.9-0.1-0.5 0.1-0.3 0.5-0.4 0.5 1.3-2.9-0.4-2.2-1.2-0.8-1.2 1.3-0.6-0.9-0.4 0.9-0.6 0.8-0.8 0.5-1.1 0.5 0 1 1.5 0.3-0.4 1.1 0 1.5-0.4 1.6-0.7 1-0.8 0.5-0.8 0.7-0.4 1.4-1.5-1 0.1 1.4 0.2 0.6 0.4 0.1 0.8-0.2 4.8 4 2 0.9 0.6 1 0.2 0.9-0.3 0.4-0.9-0.2-1.8-1.1-3-1-0.7 0.1-0.9 0.4 0 0.6-1.1 1.6-1.2 1-0.6-1-0.3-1.2-0.7-0.9-0.8-0.7-0.3-0.7-0.1-0.8-0.2-0.4-0.3-0.3-0.1-0.4 0.2-0.8 0.5-0.6 0.5-0.4 0.2-0.4-1-4.4-2-3.2-2.7-2.3-3.3-1.9-3.3-2.6-8-10.2-3.1-2.1-0.9-1.1 0.3-1.2-0.5-1.2-0.2-1.6 0.1-1.5 0.6-1.1 0-1-1.2 0.5-1 0.2-0.8-0.4-0.5-1.2-1.5 0.8-1.5 0-1.3-0.7-1.3-1.1-2.9 1.2-4.1-2.1-3.3-4-0.3-4.1-1.3-1.4-0.8-1.6-1.1-1.4-2.4-0.2 0-0.9 0.7 0 0-0.9-0.8-1-1.2-2.1-0.8-0.6 1.8-0.6 2.1 0.1 1.4-0.4-0.3-1.8-1-1.1-4-2.6 0-0.9 1.8 0.1 1.3 0.4 1-0.1 0.9-1.3 0-0.9-1.1-0.7-1.8-0.9-1.4-0.1 0 1.7-0.9-0.8-1.2-0.7-1.1-0.2 1.1-1.1-1.9-0.5-1.8-0.2-1.7 0.2-1.6 0.5 0.8-1.1 0.4-1.2 0.2-1.4-0.1-1.7 0.8 0.9 0.7-0.1 0.7-0.7 0.7-1 0-0.4 0-1.7 0-0.7 0.2-0.1 1-0.7 0.2 0-0.6-2.7-1.8-1.2-1.7-0.6-0.8-0.6-0.3-0.6-1.7-1.3-0.5-0.3-1.2-0.3-0.8-0.7-0.8-0.9-4.5-1-2.4-1-1.2-0.7-0.6 0.1-0.4-0.1 1.6-1.1 3.5 1.2 4.1 1.3 4.7 2.5 2.9 2.6 2.1 1 1.6-0.4 0.4-0.7-0.1-1 0.1-1 0.9-0.9 0.8-0.3 0.9 0 0.8 0.3 0.9 0.6 0.4-3 1.5-1.5 1.9-1.1 1.4-1.7 0.3-1.5-0.3-0.7-0.5-0.6-0.4-1.1-0.2-0.4-0.7-1-0.3-0.4 0.1-0.4 0.7-1.6 0.1-0.7-0.3-1.1-0.6-0.5-0.3-0.6 0.7-1 0.9-0.3 1 0.1 0.2 0.1 3.8 1.4 1.8 1.1 1.8 0.2 1.7-1.8 0.9-2.7-0.4-2.3-4.8-7.9-2.4-2.4-0.6-0.8-1.5-8.2-0.5-1 1.2-0.4 5.2-0.2 1.7-0.3 0.4-2.4 0.8-2.4 1.2-2.1 1.4-1.6 1.9-0.9 3.4 0.4 1.7-0.9 1.8-0.5 5.5 0.8 2.5-0.3 3.9-1.8 2.6-1.2 0.7-0.6 0.4-0.9 1.6-4.4 0.1-0.6-0.5-2.5 0-0.7-0.3-1.5 0-0.8 0.5-0.7 1.5-0.5 0.6-0.4 1.1-3.2 0.1-2.8-0.3-2.7 0.5-3.1 0.8-1.3 1.1-0.8 1.2-0.5 0.8-0.8 0.3-0.7z" id="GRD" name="Ipeiros">
  </path>
  <path d="M311.1 260.9l-0.3-2.7 0.7-2 4.1-2 1.4-1.6 0.3-4 1.6-3-4.8-2.3-1.1-2-0.5-3.8-3.4-3.9-0.4-1.9 0.3-1.8-0.8-2-5.8 0.9-1.7-1 0-1.9-3.4-2.3-3.8-1.8-1.5-1.7-2.3-4.4-1.6-1.4-0.1-1.9 1.4-3.5-2.8-3.7-0.1-3.8 2.5-5.9-2.3 0-1.7-1-1.8 0.1-4.3-1.4-1.9 0-1.7-0.6 2.4-5.9 0-1.9-3.6-1.3-1.1-2-1.6-6.2-1.6-1.8 0.7-1.7 3.7 0.2 3.9-0.9 2-0.8 1.8-1.6 0.3-1.8-1.6-1.7-3.5-1.7-0.7-4.7 0.9-0.2 1.3-1.4 0.3-1.5 0.1-1.5 0.1-1.1 1.1-1.3 3.8-2.7 0.1 0 1.3-2.6 3.7-3.5 1.4-2.1 0.2-1 0-0.5 0.1-2.3 0.4-1.2 0.8-1 1.7-1.2 1-0.7 3.1-1.7 6.6-2 0.4-0.3 1.1-1.2 0.4-0.3 0.8 0.3 0.3 0.6 0.2 0.7 0.2 0.4 3.4 1.9 0.8 0.3 2.1-0.8 3.7-3.4 2.4-1.1 2.3-0.2 0.8 0.1 1.2 0.2 3.9 1.2 3.1 0.4 1 0.3 0.2 0.5 0.2 1.8 0.2 0.5 0.6 0.1 0.9-0.6 1.9-0.1 2.6-0.4 1.3 0.1 1 0.4 2.1 1.5 1.2 0.4 3.1 0.1 1.6-0.2 1.4-0.3 2-0.6 1.7 0 3.3 0.5 2.3-0.2 1.5-0.6 0.4-0.1 1.8-1.5 1.7-2.3 0.3-1.1-0.1-1.2 0.3-1 1.6-0.5 1.2 0.3 0.1 0.2 0.5 0.6 0.4 1.1 0.8 1.1 1.9 1.6 1.3 0.7 1.1-0.8 1.2-2.8 1-5.3 0.4-10.8 0.1-0.4 1-3.9 1.1-1 1.9-1.7 1.6-0.3 3-0.5 9.4 0.7 20.4 3.1 4.3-0.5 2.3-0.6 1.1-0.7 0.9-0.9 0.6-1.4 0.1-2.5 0.4-1 1.5-1.4 2.3-1.5 2.4-1 1.8-0.2 1.9 1.4 1 1.6 1 1 2.2-0.3 1.8-1 3.2-2.3 1.9-0.6 10.1 0.3 6.8 3.5 3.5 0.2 1.2-0.9 0.1 0.3-0.7 2.8 1.6 5.9 8.7 4.3 0 1.8-1.1 1.7-0.7 3.7 0.8 2 4.8 4.3 6.2 7.5 5.3 4 5.4 1.3 3.2 3.3 1.8-1.9 2-0.4 1.8 0.3 2 1.5 2.2 4.2 4.9 4.3 2.4 1.2-0.7 1.7 1.1 4-0.4 1.8-1.1 1.7 0 1.8-1.4 1.6-5.8 4.6-2.2 3.3-5.4 4.6-2.1 1.1-8.8 2-0.3 0.8 0 0.2-1.3-0.3-3.3 0.4-5.7 2.3-2.3 1.5-2.2 2-1.4 2.2-0.5 3.5 0.9 2.9 1.8 2.1 2.4 0.7 1.5 1 1.7 2.5 1.4 2.9 0.7 2.4 0.6 0.2 3.6 3.1 1.3 0.5 1.6 0.1 1.6-0.1 1.2-0.5 0.6 1.5 2 1.9 0.1 1.2-0.9 0.6-7 0.9-1.6 1.6-0.4 2.6 0.8 3.6 4.2 6.4 1 1 3.3 1.6 0.6 0.7 3.9 0.9 1.1 0.4 1.1-0.5 2.8-0.4 0.2-0.2 0.2 0.4-0.1 3.4 0.1 2.3-0.1 1.8-0.4 1.3-0.8-0.6-3.7-3.9-2.1-1.7-1.5-0.5-3.8 0.5-3.8-1-1.5 0.1-5.3 2.6-2.3 0.5-3-1.3-0.3 0.7-0.7 1.2-0.4-0.1-1.8 2.6-0.6 2.3 0.2 2.2 1.6 4.3 0.5 0.7 0.8 0.9 3.5 2.3 0.7 2.2 1.4 1.7 1.5 0.9 0.7-0.2 7 3.3 1.3-0.4 1.7 0.6 1.7 1.4 1.3 1.5 1.5 1.1 4 1.5 1.2 1.6-0.2 1.2-1.3 1.3 0.1 1.3 0.6 0.8 1.8 1.3 0.4 1-0.4 1.2-0.7 0.2-0.7-0.1-0.3 0.6 0.2 1.5 0.7 0.6 0.9-0.1 1-0.7 0 1.4 0 0.9 0.3 0.7 0.4 0.7-2.7 2.3-0.5 1.2 1.1 1.1 0 0.9-2 0.1-0.9 0.8 0.3 0.9 1.9 0.1 0 1-5.3 0.1-2.1-0.5 0.3-1.6 0-0.9-0.7 0-0.8 0.7-0.7-0.2-0.3-0.9 0.5-1.4-3.7-2.1-0.6-0.2-0.5-1.5-1.2-1-1.4-0.3-0.7 0.6-0.1 0.6 0.4 1.2-3.8-6.4-0.5-1.5 0.7-2.2 0.1-1.3-0.4-0.6-1.1-0.5-0.6-1.1-0.4-1.2-0.4-1-9.2-12.3-3.4-2.4-2-0.6-8.5-0.6-5.7-3.4-4.7-1.3-4.2 0.2-3.4 2.2-2.5 4.5-0.3 2.6 0.8 2.3 1 2.2 0.6 2.5 0.3 0.8 0.8 0.5 2.1 0.1 0.9 0.3 0.6 0.7 0.9 1.7 5.5 7.9 3.1 3.4 10.7 5.9 6.9 1.6 0.3 0.8 0 1.2 0.3 1.4 0.9 1.6 1.3 1.1 1.6 0.7 2.1 0.2 1.5 0.5-0.8 0.9-1.9 1-1.9 0.5-8.9-1.5-15-6.4-2.5-0.5-7.6 1.3-1.2 0.6 0.5-1.5 1.3-2.6 0.3-1.5-0.3-1.1-1.5-2.1-0.3-0.9-0.8-3.2-1.8-2.3-1.9-2-1.1-2.1 1.4-4.3 0.5-5.1-0.6-4.8-2-3.4-4.2-2.4-2.3-0.8-3.8-0.9-1.7-1.1-1.7-0.8-1.8 0.5-5.3-4-1.1-0.1-1.1-1-2.4-0.6-2.4-1-1.9-3.4-4.8-3.8-1.9-0.9-1.8-0.3-4.1 0.3 1-2.1-0.8-2.2-3-4 0.3-0.1 0.3 0 0.1-0.1 0-0.6-3.8-4.3-0.9-2.3 2.2-0.9 6.6-0.4 3.5-0.7 1.5-1.2 0.7-1.2 1.3-1 0.8-1.4-0.7-2.4-2.5-1.6-0.6-0.3-0.5-0.4 0.2-0.9 0.6-1.5-1.6-3.5-2.4-1.8-2.8-0.4-3 1.1 0.7 2.5-0.2 2.1-0.8 1.6-1.1 1.2-1.6 0.9-1 0.7 0.1 0.3-2.1 0-0.9-0.3-0.9-0.7-2 1.4-1.3 1.7-0.3 2 0.8 2.4-0.7 0-0.7-1 0 2-0.7 0 0-1-0.7 0-0.5 1.6-0.8-0.1-1.1-0.9-1.1-0.6-0.1-0.7-1.5 0.1-1.6 1.4-0.2 1.6 2 1.2-1 0.1-0.6 0.3-0.4 0.7-0.1 1.3-0.5 0.7-0.9-0.2-1.5-1-2.5 0.1-1.3 0.5-1.1 1.2 1.4 1.4 1.1 1.9 0.5 2.1-0.2 2 1.2 1.1 1 1.6 1.2 1.3 1.9 0.6 0.3 1.4-1.4 3.1-2.8 4.8-3.1 9.3 0.1 1.5-4 8.6-0.3 3 0.8 2.3 1.1 2.2 0.5 3.1-0.4 3 0.3 1.5 1.2 0.6 0.5 0.6 1.2 3.9 5.4 4.6 1 0.5 0.5 0.5 2.5 0.8 0.5 0.5 0.3 0.5 0.9-0.1 0.2 0.6-0.1 2.4 0.1 0.6-1.1 0.2-5.3 0.9-1.6-1.4-1.8-0.3-8.2 2.3-3.9-1.4-3.1-3.1-2.3-4.1-6.9-4.8-3.1-3.5-1.2-3.9 0.2-5.8-0.7-2-3.4-2-4.3 1.5-1.8 1.5-2.1 3.4-2.1 1.8-1.8-0.6-0.8-2 0.4-2.1-0.4-2 1-1.6 0.3-1.8-5.3-1.3-2.1 1.2-1 1.6-0.8-1.9z" id="GRB" name="Kentriki Makedonia">
  </path>
  <path d="M491.9 178l0-0.2 0.3-0.8 8.8-2 2.1-1.1 5.4-4.6 2.2-3.3 5.8-4.6 1.4-1.6 0-1.8 1.1-1.7 0.4-1.8-1.1-4 0.7-1.7-2.4-1.2-4.9-4.3-2.2-4.2-2-1.5-1.8-0.3-2 0.4-1.8 1.9-3.2-3.3-5.4-1.3-5.3-4-6.2-7.5-4.8-4.3-0.8-2 0.7-3.7 1.1-1.7 0-1.8-8.7-4.3-1.6-5.9 0.7-2.8-0.1-0.3 0.3-0.2 2.6-2.6 2-0.7 3.4 0 3.4 0.7 1.6-0.4 2.4-3.9 1.5-0.7 1.8 0.1 2.2-0.3 2.1-0.5 1.7-0.8 2.8-2.6 0.8 0.1 4.8 3.5 1.5-0.1 1.8-1.7 0.5-0.4 0.6-0.1 0.5-0.3 0.3-1 2.3 1.5 1.2 0.3 1.2-0.6 0.6-1 0.1-1.2-0.3-3-0.3-4.4 3-1.5 4.1 0.4 3.1 0.9 0.8 0.6 0.5 0.8 0.4 0.6 0.8 0.1 0.3-0.5 0.4-2.2 0.4-0.8 1.5-1.4 0.2-0.1 1.7-1.1 1.9-0.8 1.8-0.2 1.7 1.9 2 1.2 0.1 1.2-0.2 1.2 0.1 0.8 1 0.3 0.7-0.2 0.7-0.4 0.9-0.2 2.7 0.4 0.9-0.1 3.5-1.1 1.6-0.1 2.1 0.3 1.6-0.3 2.1-3 2.2-0.5 3-1.2 2.1 2 1.3 3.6 0.3 3.8 0.3 1.1 0.5 0.6 0.5 0.6 0.5 0.8 0.4 0.4 1 0.6 0.4 0.4 0.1 0.7-0.3 1.5 0.1 0.5 1.6 1.5 1.4 0.4 3.6-0.1-0.7 1.4 2.4 0 2 0.3 1.9 0.9 2 1.8 3.5 4.5 2.2 2 2.1 0.1 0.9-2-0.3-2.4 0.3-1.8 4-0.3 2.1-0.8 1.1-0.2 1.3 0.2 3.2 2 16.8 7.1 1.7-0.3 0.5 0 0.3 0.3 0.8 1.4 0.4 0.4 3.8 1.9 0.4 0.1 2 1.7 4.4 6.1 2 1.2 2.4 0.3 2.4-0.1 17.2-5.6 2.7-0.5 1 0.1 0.8 0.3 0.8 0 1-0.4 0.9-1.1 0.7-1.5 0.8-1.3 1.4-0.5 9.1 0.7 1 0.3 2.1 1.3 1 0.3 1.1-0.2 0.7-0.5 0.8-0.7 1.2-1 1.2-0.4 3.6-0.2 3.8-2.6 1.1-0.4 2.2 0.8 3.1 3.4 2 0.8 1.4-0.3 2.6-1.3 1.4 0 1.4 0.3 1.1-0.2 2.4-1.1 2.7-1.9 1.3-0.6 8.8-2.1 0.8 0.2 0.6-0.3 1.2-1.9 1.6-3.5 1.1-3.4 0.6-0.8 0.6-0.3 0.5-0.3 0.2-1.1-0.3-0.8-1.4-1.4-0.5-0.6-1-2.4 0.1-0.9 1.2-1.3 0.4-1.7 0.2-1.5-0.2-1.6-0.5-1.8-0.6-0.7-1.6-0.3-0.5-0.4-0.2-1 0.1-2.1 0-1.1-1-3.5-0.6-1.1-0.9-1.1-1.1-0.5-1.5-0.3-1.5-0.7-0.7-1.2-0.5-0.6-0.5-1.7-0.2-1.9 0-2 0.6-1.7 0.7-0.8 0.7-0.2 0.7-0.1 0.7-0.3 2.8-2.2 2.8-0.8 5.6-0.2 2.2-2.1 1.5 0.1 0.9 0.5 2.7 3.1 1.3 1.2 2.2 0.6 3.9-0.4 2.7-0.2 1.9 0.5 2.7 2.6 4 1 1.8 0.8 1.6 0.4-0.3 2.1-0.9 1.7 5.8 4.4 4.7 2.4 1 1.1 2-3-0.1 1.1 0.1 1 0.3 0.9 0.4 0.8-0.5 1.6 0.4 3.6-0.6 1.4 1.1 1.9 0.5 2.4 0.5 5.1 1.6 6.7 0.5 2.7 0 2.9-0.5 2.9-0.9 2.4-1.4 1.3-1.9 0.2-2.2-0.6-2-1.1-1-1.4-5.2 5.6-1.1 0.2-0.5 0.4-0.2 0.6-0.6 0.7-2.9 1.8-2.7 2.5-1.7 0.9-6.5 0.7-1.2 1 1.6 2.4-1.1 3-0.4 2.6 0.3 2.5 1.2 2.3-1.9 3 0 1.2 1.5 0.4 0.8 0.6-1.8 3.6 0.3 1.9 1.4 3.1 0.9 1.4 2.7 1.4 0.1 1.6-0.7 1.6-0.9 0.7-1.5 0.2-0.9 0.5-0.3 0.9 0.3 1.2 1.1 1.4 1 0.5 0.3 0.4-1.1 1.4-1.4 1.1-2.9 1.4-1.3 1.3 0.3 0.6 0.6 0.9 0.1 0.9-1.4 0.4-0.8-0.2-0.8-0.4-0.5-0.6-0.3-0.8-0.7 0-0.8 2.7-0.6 1.3-0.7 0.8-0.7 0-0.2-0.6-0.5-1.3 0 1.4-0.1 0.8-0.4 0.3-1 0.2 0 0.7 0.1 0.2 0.3 0 0.3 0.1-1 0.5-0.3 0.5-0.1 0.9 0.8 1.5-5.6 4.8-1.5 2.4-0.9 3.7-2.3 2.7-3.1 1.5-3.9-0.3 0.3-0.6-1.1-2.1-0.3-2.7-0.6-2.5-2.2-1 0-1 1.4 0.1 1.9-0.3 1.6-0.5 0.7-0.6-0.7-1.4-1.5-0.2-1.7 0.4-1.1 0.7-0.4-0.9-0.2-1.1-0.8 0 0 1.1 0.5 0.7 0.3 1.2-0.8 0-1.6-1.9-3.2-2-3.4-1-2.2 1.1-1.8-0.5-5.5-0.1-1.2-0.8-1.1-0.2-7.3 0.7-4.3-0.9-4.5-1.6-4.4-0.8-3.8 1.4-0.9-0.2-2.1-0.5-2.2-1.1-1.5-1.5-1.6-1-5.1-1.1-1.8-0.1-3.7-1.8-4.4-3.1-4.2-1.3-3.4 3.4-0.7 0-0.1-0.7-8-1.5-2.2-1.2-1.3-1-0.9-0.2-0.4-0.3 0.2-1.7 0.4-1.1 0.9-0.9 1-0.6 1.2-0.2-1.9-1.3-1.4-0.7-8.3 0.1-1.9 0.5 0.1 2.2-2.1 2-1.3 0.7-1.5 0.2 0.7 2.5-0.9 1.1-1.8 0.2-1.9-0.1-1.4 0.5-3.3 1.9-1.7 0.4-2.9 2.1-3 4.2-3.3 2.8-3.7-1.6-3.9 1.7-2 0.2-1.9-1 0.5-0.3 0-0.1 0.2-0.5-3.5-1.9-2.2 2-0.6 0.8-0.7 0-1-2.1-1-1.9-1.4-1.7 0.5-1.8-1.5-0.7-1.1-1-0.7-1.5-0.2-1.9-5-0.9-1.3-0.5-1 0.8-1.2 0.2-1.1 0.4-0.9 1.4-2.2-0.9-2.8 0.3-2.5 1.3-2 3-4.6 3.8-1.5 0.9 1.2 1 0.8 1.3-0.1 1-2.2 0.6-0.4 0.5 0 0.7 0.4 0.9 0.6 0.4 1.7-0.1 0.9 0.3-13.3 7.8-10.4 6.2-3.8 0.9-4.4-0.3-4.5-1.2-11.6-6.2-2-0.4z m188.7 45.1l0.5 2-1.3 1.3-9.6 3.4-2.3-0.2-3.6-2.1-6.8-5.5-1.4-1.7-0.9-1.8 1.9 0 6-3.5 2.7-1 3 0 8.3 2.6 1.6 1.1 1.7 1.7 0.9 1.9-0.7 1.8z m-92.9-38.9l-2.2 0.1-0.6 1.5 0.7 1.6 2.1 0.5 0 2.7-1.8 0.6-0.3 1.9 0.7 4.1 0.7 1.5 0.3 1.1-0.3 1.1-0.7 0.1-1.8-1.2-0.3 0.6-0.8 1-1.8 0.7-3.4 0.6-1.3 0.5-2.5 2.4-1.5 0.9-0.5-1.3-0.7-0.9-1.6-1.6-0.4-0.1-0.8 0.2-0.3-0.1 0-0.4 0.1-1.1-0.1-0.3-1.4-1.4-0.7-0.4-2.8-0.7-2.3-0.1-1.4-1.1-0.5-3.7 0.6-3.5 1.6-3.5 3.4-5.1 7.8-6.5 3.3 1.6 4.2 0.5 1.7 0.6 0.4 0.9 0.2 1.3 0.6 1.1 1.2 0.5 1.1 0.3 0.9 0.7 0.8 0.9 0.4 0.9z" id="GRA" name="Anatoliki Makedonia kai Thraki">
  </path>
  <path d="M507 240.4l0.4-1.3 0.1-1.8-0.1-2.3 0.1-3.4-0.2-0.4 0.8-0.6 0-1.3-0.7-1.7-1.4-2.7 0.7-0.9-0.7-0.9 2-0.2 1.8 2.3 2.5 5.4 1.3 1.5 2.1 2 2.4 1.2 2-1.1 1 0.6 3.2 1.1 1.1 0.2 0.7 0.6 1.1 3.1 0.6 0.9 3.1 0 3.3 3.8 5.6 8.2 6.5 6.6 1 3.6-3.3 2.7-4.4 1-1.9-0.4-0.8-2-0.6-2.4-1.5-1.4-1.8-1-1.6-1.2-2.8-4.1-1.9-4.2-2.5-3.6-4.1-1.9-8.3-1.5-3-1.3-1.8-1.2z" id="GR69" name="Ayion Oros">
  </path>
  <path d="M228.5 309.5l1.3 1.3 1.9-0.1 4.3-1.5 2-1.2 2.4-3.3 2.1-1.5 4-1.6 15.1 2 10.3 2.8 3.7 0.2 7.7-1.7 5.4 0.8 1.3-1.2 0.3-1.8-0.9-3.8 0.3-1.8-0.7-1.9-3.4-2.1 2.1-1.5 4.9-4.7 4.1-2.3 2.1-3.7 0.9-3.5 5-5.1 3.1-5 0.9-3.5 2.4-2.9 0.8 1.9 1-1.6 2.1-1.2 5.3 1.3-0.3 1.8-1 1.6 0.4 2-0.4 2.1 0.8 2 1.8 0.6 2.1-1.8 2.1-3.4 1.8-1.5 4.3-1.5 3.4 2 0.7 2-0.2 5.8 1.2 3.9 3.1 3.5 6.9 4.8 2.3 4.1 3.1 3.1 3.9 1.4 8.2-2.3 1.8 0.3 1.6 1.4 5.3-0.9 1.1-0.2 0 0.1 1.4 4.8 0.7 1.7 1.1 1.4 3.9 3.4 2.3 1.2 1.4 1.5 2.6 3.5 1 1.7 0.9 2.3 0.6 2.7 0.3 2.9 0.4 2.1 3.1 7.6 2.4 7.9 1.5 2.5 1.4 1.4 5.3 3.6 5.3 2.1 3.9 3.1 0.3 0.3 0.5 0.6 1.2 4.1 1.2 1.6 8.8 10 1.3 2.8 4.9 4.7 2.2 7.2 5.1 10.1 0.1 1.7-1 0.7-3.3 3.1-2 0.7-3.9 0.6-2 0.6-1.5 0.7 0.5 0.3 0.4 0.3 0.5 0.2 0.7 0.1 0 0.9-0.9 0.3-0.8 0.4-0.6 0.5-0.5 0.6-1.2-0.5-2.3 0.2-2.4 0.7-1.5 0.9-1.6 0.8-2.4-0.1-4.1-1.1 0.9-1.9 1.2-1.7-0.5-1.8 1.4-1.2 3.3-1.5 0 1.6-1.3 5.6 7.3-4 1.1-1.5-0.7-1.3 0.6-0.4 0.9 0.1 0.6 0.3 0.3 0.6 0.7-0.8 0.8-1.4 0.3-1.6-0.5-1.4-2.6-4.5-1.1-1.3 0.4-2.2-1.1-2.4-1.8-2.1-1.7-1.6-2-1.4-1.8-0.7-8-0.7 0-0.4 0.1-0.6-0.3-0.7-0.5-0.8-1-2.1-0.6-0.6-0.7-0.2-2.8 0.2-2.3-0.6-0.6 0.1 0.8 1.3 0 0.9-1.1 1.1-0.4 1.5 0.3 1.6 1.2 1.2-2.5 0.6-4 0.5-3.9 0.9-1.6 2.2-0.2 5.1 0.2 1.6 2.8 8.3 0.7 0 0.8-1.5 1.3-1.3-0.4-1.4 0.5-0.1 0.8 0.9 0.5 1.5 0.7-0.9 1 2.2 0.3 2.6 0.7 2.5 1.6 1.8-0.1-0.7 0.2-0.1 0.2 0 0.4-0.1-0.5-0.9-0.2-0.9 2.5 1.7 1.3 2.2 0.9 2.3 1.6 2-0.6 1.6 0.1 0.4 0.5 0.7-3.2 1.9-0.8 1.3 0.5 2.1 5.3-3.2 2.8-0.9 3.1-0.3 0 0.8-0.8 1-3.4 1.8-0.9 0.9-0.4 0.9-0.8 2.7-0.4 1-0.8 0.9-0.3 0.5-0.3-0.2-0.7-0.3-2.2-1-4 1.9-5.9 0.4-3.1-3.1-1.7-0.6-3.7 0.4-5.6-1.7-1.8 0.1-6.5-4.4-2.1-0.7-7.8 0.8-4-0.3-1.7-1-0.7-1.9-0.4-5.9 0.5-3.2-6.7 0.7-1.6-1.3-0.8-6-1.6-1.3-3.6-2.4-7.2-2.7-5-3-9.1 10.5-3.1 7.4-2.2 1.9-3.8 0.8-2 1.1-2.7 3.2-4.4 2.2-3.8 0.8-1.8-0.3-0.4-1.8 0.7-1.7-0.5-3.7-1.5-2.1-3.4-1.3-3.6-2.7-1.8 0.1-5.9 4.1-1.9 0.8-1.8-0.3-1.6-1.3-0.8-2 1-3.5-0.8-1.9-3.3-2-0.6-5.5-0.8-1.9-1.6-1.4-8.8 2.3-2 1.5-0.7 1.7-1.7 1.5-3.2-2.7-1.9 0.5-3.7 2.7-4.9 5-1.3-0.6-2.7-4-0.4-2.2 5.4-10.4-1.6-3.9-2.4-2.9-1.9 0.4-5.4-0.8-3.6-2.7-1.5-4.6-4.8-4-0.8-2.3 0.4-2.2-0.7-2.3-1.6-2 0.3-1.8 1.4-1.6-0.9-3.8 0.6-3.5-1.2-2-1.7-0.6-1.5-2.1-0.2-3.7-1.1-4.2 1.3-1.6 2-1.1 4.1 0.2 1.6 1.4 1.8-0.1-0.1-3.7-1.7-7.9 0.7-1.8 1-2 2-1.1 1.1-1.7 1.9-0.8 2.8 0.8z m220.5 87.7l-1.2-0.4-1.1-0.1-1 0.1-1 0.4 0.4-2.3 1.2-0.9 1.3-0.3 0.6-0.5 0.5-1.4 1.1-1.6 1.4-1.3 1.3-0.7 1.6 1 1.8 1.6 0.9 2.1-0.8 2.6-1.6-1.3-1.5 1.4-1.5 3.5-0.7-0.2-0.9-1.2-0.8-0.5z m23.9 3.7l-1-0.7-3.3-3.2-0.6-1.1-0.4-1.8-3.1-5.1 1.4-0.8 0.1 0.7 0.3 0.1 0.4 0 0.6 0 2.4 2.7 2.8 2.4 3.2 1.9 3.5 1.2-0.4 1.9 2 0.4 2.7-0.1 2.1 0.6 0 0.9-3.4 3.6-1.9 1.4-2.5 0.4-1-0.3-1.5-1.3-2.7-0.5-0.9-0.6 0.1-0.9 1.1-0.9 0-0.9z m27.5-13.7l-1.6 4.1-2.6 3.8-3.2 2.4-3.2-0.3 1.4-1.9 1.4-1.2 1.2-1.4 1.7-5 5.2-8.3 1.8-1.2-0.2 0.5 0 0.4-0.2 0.5-0.3 0.5 2.2 0.4-0.5 2.7-1.8 3-1.3 1z m14.8-17.4l1 0.5 0.4 0.4-0.1 2.1-1.2 3.3-1.9 1.1-1-1.1 0.1-1 0.5-0.3-0.4-0.5-1-0.6-0.5-1 0.4-1.4 0.6-1.4 0.8-1.3 0.9-0.2 0.2 1.3 0 1 0.5-0.4 0.7-0.5z" id="GRE" name="Thessalia">
  </path>
  <path d="M235.9 396.1l1.3 0.6 4.9-5 3.7-2.7 1.9-0.5 3.2 2.7 1.7-1.5 0.7-1.7 2-1.5 8.8-2.3 1.6 1.4 0.8 1.9 0.6 5.5 3.3 2 0.8 1.9-1 3.5 0.8 2 1.6 1.3 1.8 0.3 1.9-0.8 5.9-4.1 1.8-0.1 3.6 2.7 3.4 1.3 1.5 2.1 0.5 3.7-0.7 1.7 0.4 1.8 1.8 0.3 3.8-0.8 4.4-2.2 2.7-3.2 2-1.1 3.8-0.8 2.2-1.9 3.1-7.4 9.1-10.5 5 3 7.2 2.7 3.6 2.4 1.6 1.3 0.8 6 1.6 1.3 6.7-0.7-0.5 3.2 0.4 5.9 0.7 1.9 1.7 1 4 0.3 7.8-0.8 2.1 0.7 6.5 4.4 1.8-0.1 5.6 1.7 3.7-0.4 1.7 0.6 3.1 3.1 5.9-0.4 4-1.9 2.2 1 0.7 0.3 0.3 0.2-0.5 0.5-0.8 0.6-0.6 0.2-1.5-0.3-0.8 0.1-0.6 0.7-0.6 0.3-0.8 0 0.4 1.4 0.3 0.5-1.5 0.2-2.1 1.2-1 0.3-1.3-0.2-1.3-0.6-1.4-0.3-1.3 0.2-0.5 1-0.6 3-0.7 0.6-2.5 0.1-0.9 0.5-0.5 1.2-1.4 0-2.4 0.6-2.2 0.2-1-1.3-0.5-1-1.1 0.3-1.9 1.2-0.9-0.3-1.7-1.2-0.6-0.3-0.2-0.3-3.6-2.7-0.8 0.2-1.9 1.4-0.6 0.6-0.8 0.6-1.2 0.2-1 0.1-0.8 0.2-0.7 0.6-0.7 0.9-0.4-0.3-1-0.7 0 3.7 4.9-0.9 0 0.9-1.9 1.3 1 1.5 2 0.6 1-1.6 0.7 0-0.7 1.8 1.6 0 1.3-0.5 1.2-0.1 0.8 0.6 5.1-2.6 1.3-0.1 2.5 4.1 2.1 2.7 1.2 0.7 1 1.2 0.9 0.4 0.9-0.1 2-0.7 1-0.2 1.4 0.5 1.7 1 1.4 1.5 0.8 1.5 2.1-2.1 1.1-0.5 1.7-0.1 1.1 0.5 2 1.8 1.5 0.4 5.8 0.1 2.6 1 1.8 2.5 3.2 10.4 1.5 1.4 1.9 0.2 1-0.4 1.2-1.2 1.2-0.6 1.3 0.2 1.4-0.2 1.4-1.7-2-1.3-0.9-0.4 1.9-0.9 1.9 0.5 3.3 2.1 1.7 0.6 3.4 0.5 2 0.7 1.5 1.3 1.1 1.7 0.4 1.8-0.2 1.6-1.3 1.3-1.5 0.7-1.3 1.3-0.9 3 1.1-1.6 1.2 0 1.3 0.8 1 1.3 1.1 0.9 2.8 0.7 1.4 0.6 0 0.9-0.9 0.4-2.3 0-1 0.5-0.9 0.9-0.2 0.9 0.5 0.6 1.6 0.2 7-0.3 10.4 1.8 1.3-1 1.1-1.7 2.5 1.3 3.5 3.6-2.1 1.4-0.8 0.3 0 1 1.3 0.3 1.1 0.6 0.4 0.8-0.6 1 0 0.9 3.1 1.6 5 7.5 3.8 2.6 1.5 0.1 4.3-0.7-0.4 0.7-2.8 1.3-5.8 1.8-3.5 3.3-2.1 3.5-0.9 12.4-2.8 3.1-3.7 2.5-1.8-0.3-1.5-1.3-3.5-0.7-1.6-1-4-5.7-1.6-1-1.9 0.4-1.8-0.3-1.5-1.4 0.3-1.7 1-1.6-1-2.4-1.6-1-3.8 1.1-2 1.1-1.4 1.6-0.8 5.9-1.3 1.6-3.5-0.7-5.8 0 4.5 1.4 0.2 0.9-0.5 0.2-7.1-0.9-1.6-0.7 2.1-1.8-2.7-2.9-1.3-0.2-3.3 3.2-1.1 0.3-3.6-0.4 0-0.9 2.1 0-1.4-2-1.4-1.1-1.5-0.4-6-0.7-1.9 0.4-1.2 2 1.4-0.5 1.5 0.1 1.3 0.8 0.7 1.4-1.8 0-3-0.6-1.5 0.6-1.4-6.3-0.7 0-0.7 1.9-0.2-0.6-0.3-0.7-0.2-0.6-1.8 0.6-3.8 0.5-1.4 0.8-4.2-2.8 0.8-1.3 1.9-1.6 0.8-1.5-2-0.9-3.9-1.1-2.3-1.7-1.7-0.5-0.7-0.4-0.5-0.7-1.6-2.8 0.9-2.3-1.5-2.7-2.4-1.1-2 2.4 1.8 0.3 0.2 1-1 0.7-1.3-0.6-1.2-0.4-1.2 1.1-0.9 1.5-0.5 1 0 0.8 0.5 0.3 0.3 0.3 0.4 0.2 0.8 0.2 0 0.8-0.8 0.5-0.1 0.3 0.2 0.3 0 0.8-1.1 1.2-1.3 0.4-1.4-0.4-1.8-1.2 0-0.4-1.2-2.3-0.2 0-0.3-0.8-0.3-0.3 0.3-0.3 1-0.4-1.4-2.9-4.9-6.1-0.9-2.1-0.5-0.6-0.5-0.3-1.1-0.3-4.8-3 0.2 1.4 0.4 2.3 0.1 1.3-2.8 2.2-0.7 0.9 0.7 1 0.5 0.5 0.4 0 0.5-0.6 0.4 1.2-0.2 1-0.7 0.8-0.9 0.5 0.7 0.9-0.5 1.1-1.6 0.1-1.9-0.7-2.7-0.5-3.9 0.5-0.5-0.7-1.4-0.8-1.4-0.3-0.9 0.4-0.7 0-1.2-0.3-1.6 1-1.4 1.7-0.7 2.2-0.8-0.9-0.6-1.8-0.7-1-0.9-0.4-0.9 0.2-0.6-0.2 0.2-1.3-1.5-1.1-3.3-1-5.3-2.4-2-0.1-1.9 1-2.4-2.5-3.1-0.1-2.9 1.1-4.2 3.1-0.9 0.2-1.6 0-0.8-0.4-0.5-0.9 0.7-2.2-0.3-2.6 2.1-3.9 4.2-3.6 3.8-0.9 2-1.1 1-1.6-0.4-4 1.7-3.7-3.1-3.4 0-1.8 1.3-1.5-0.4-4.1 1.3-3.4-0.4-3.6 1.6-3.4 0-1.8-4-2.4-0.1-1.1-4.4 1.8-1.7 1.5-3.9 1.9-5.4-0.5-0.6 1.7 0.1 3.6-3.8 3-2.2 0.4 0.3-1.8-1.2-1.9-5.5 0.9-3.6-0.2-3.4-1.6-5.6-3.8-1.5-1.7-1.6-3.8 0-1.8 0.7-2.1 1.7-1.5 5.9-3 0-1.9-3.4-1.6-5.6-1.2-1.6-1.3-1.8-0.3-1.6-1.3-0.4-1.9 0.6-3.5-0.8-2.3-10.2-6.3-0.5-1.9 2.7-5-0.1-1.8 0.6-1.7-0.7-1.9-2.7-3.7 0-4.4z m340.5 45.5l0.2 0.4 0.2 0.3 0.2 0.6 0.1 1-0.1 1.1-0.3 0.1-0.4-0.1-0.6 0.3-0.6 0.9-0.7 0.8-0.7 0.1-0.8-1-0.7 0-1.1 0.9-1.2-0.5-0.9-1.3-0.4-1.3-0.6 0.1-1.3 0.6-1.3 1.2-0.3 2.1-3.5-4.5 4.2-1.8-1-3.8-0.7-0.9-1.1 1.1-0.6 0-0.4-1.4-0.8-0.5-1.2 0.3-1.2 0.7 0-1.4-2.3-1.1-0.5-2-0.4 0.3-0.3 0.6-0.8-1.2-0.9-0.6-1 0.1-0.9 0.8-0.1-1.3 0.4-1.2 0.7-0.8 0.8-0.4 0.9-0.6 0-1.5-0.5-2.4 0-1.9 0.4-1.7 1-1.2 2.1-0.6 7.1 4.9 1.3 1.5 0.3 1.3-0.4 3.2 0.1 1.7 0.5 1.4 0.6 0.6 1.7 0.8 4.3 3 2.1 2 1.4 2.2z m-9.1 85.4l-0.9 6.5 0.1 3.3 1.5 2.9-0.9 1.8-1.1 5.7-0.9 2.2-1.5 1.3-2.1 1.1-2.3 0.9-2.2 0.3-1.1-0.3-0.4-0.8-0.2-1.5-2.4-4-0.4-0.1-1.5-1.3-2.7 1.3-1.7 2 1.6 1.1 0 1-1.6 1.3-1.5-0.2-1.5-1.1-1.9-2.2-0.5-0.8-0.7-1.6-0.7-1-0.7-0.8 0-0.8 1.4-0.9-1.3-3-0.9-0.9-1.4 0.3-0.6-2.1-1.8-1.2-2.1-0.2-1.7 0.8-1.5-0.8-0.5 0.1-0.9 0.7 0-0.6 0.1-0.2 0.2-0.1 0.4-0.1 0-3.4-0.8-0.8-1.7 0.4-0.3-1 0.4-0.9 1.9-2 0.5-1.2-0.2-1.6-1.5-1.8-0.9-3.4-1.3-1.1-1.6-0.4-1.5 0.4 0.7 1.8-2.4-0.6 0.5-2.4 1.8-2.7 1.5-1.5-1-1.7-0.8 0-0.8 0.9-0.9 0.8-0.2 0.4 0 0.6-0.1 0.6-0.8 0.2-0.9-0.3 0-0.5 0.3-0.7 0.3-0.3 0-1-1.5 0 2.2-4.4-2.1-1.2-2.3-0.9-2.5-0.5-3-0.2 2.5-0.8 1-0.6 0.7-1.3-0.8-1.2-0.2-1.1 0.1-0.9 0.2-0.3-1.1-2.2-0.7-0.9-0.3 0.8-6-0.4-7 0.9-2.1-0.3-3.5-1.3-1.5-0.2-2 0.2-3.1 0.7-1.5 0-7.1-1.8-1.6 0.1-3.2 1-1.5-0.2-1.1-1.3-2.4-6-0.4 0.5-0.4 0.5-0.5 0.1-0.8-0.1 1-2 1.9-2.1 1.3-2.1-0.7-1.9 0-0.9 0.7 0 0-0.9-2.2-3.8-1.4-1.8-1.7-0.7-4.5-0.7-2.2-0.9-1.4-1.1-0.3-1-0.1-2.3-0.3-1.1-2.4-2-0.4-0.4-0.4-0.4-0.7-0.2-0.7-0.6-0.3-1.5-0.5-0.9-0.9-0.9-3.1-2-2.6-1.2-2.9-3.1-1-0.5-0.6-0.5-1-2.6-0.5-0.5-2.3-1.3-10.1-7.6-3.5-1.9-2.5-0.9-1.3-0.1-1.8 0.1-3.1 0.7-1.5-0.1-1.3-1.1-2-2.6-0.8-0.4-1.4-0.1-1.7-0.3-1.6-0.7-1.4-0.4-1.4 0.4 0 1 1.5 0.1 1.4 0.5 0.8 1.2-0.1 1.8-1 0.8-1.6 0.5-11.3 1.1-2.3 1.3-0.1-1.5 0.1-1.5 0.4-1.2 0.6-0.4 0.9-0.5 2.4-1.8 1-0.4 2.3-0.5 4.7-2.6 3.1-0.8 2.9-1.6 2.5-0.9 0.4-0.4 0.4-1.8 0.2-0.5 1.2-0.4 2.1 0 0.9-0.6 0.8-1 0.3-1.3 0-1.2-0.3-0.9 1.5-0.5 1.9-1.9 1.1-0.4 6.3 0 2.2-0.7 5.4-3.2 2.7-0.5 1 0.6 1.5 1.7 0.6 0.4 1.4 0.2 1.5 0.5 1.4 0.8 1 1.2-0.7 2.5 1 2 2.1 1.3 2.2 0.4 0 1.4 1.7 6 0.8 1.7 0 1.5 1.2 2.5 1.9 2.3 4.5 2 4.5 3.8 2.7 0.6 0 1-0.3 1 0.3 0.5 0.6 0 0.8-0.7 1.2 1.4 3 0.5 1.4 0.8 1-0.7 1.1 0.7 2-1.3 2.1 0.4 1.6 1.7 0.7 2.4 0.9 1.6 2 1.4 4.1 1.9 4.5 1.5 5 0.4 2.2 0.5 2.1 0.8 1.9-0.1 1.9-2.1 2.2 1.1 2.3 0 2.4-0.3 2.2 0.1 6.5 2.3 2 1.2-1.1 0.4-1.1 0.8-0.9 1.1-0.4 1.4-0.1 2.2 0.6 1.2 9.2 7.8 1.6 2.3-2.6 2-1.9 4.3-0.4 4.5 2 2.8 0 0.8-1.9 0.6 0.3 1.2 2.3 2.7 0.2 1.6 0.1 2.1 0.1 1.7 2.5 3.1 0.2 1.3 0.5 0.7 0.5 0.4 0.2 0.3-0.1 2.3 0.1 1.2 0.6 0.9-1.1 1.7-0.2 0.6 0.7 1.7 1.3 1.6 2.8 2.1 3.6 1.8 0.3 0.8 0.3 1.2 0.5 1.1 0.7 0.4 3.5-0.7 1.4 0.1 2.9 2.2 4.1 0.4 1.8 0.7 1.9-1 9.4-1.7z" id="GRH" name="Stereá Elláda">
  </path>
  <path d="M426 526.9l0.5-0.2-0.2-0.9-4.5-1.4 5.8 0 3.5 0.7 1.3-1.6 0.8-5.9 1.4-1.6 2-1.1 3.8-1.1 1.6 1 1 2.4-1 1.6-0.3 1.7 1.5 1.4 1.8 0.3 1.9-0.4 1.6 1 4 5.7 1.6 1 3.5 0.7 1.5 1.3 1.8 0.3 3.7-2.5 2.8-3.1 0.9-12.4 2.1-3.5 3.5-3.3 5.8-1.8 2.8-1.3 0.4-0.7 1.6-0.3 2.3 1.5 1.2 0.2 9.9 4.2 2.1 0.4 1.8 0.6 1.7 1.5 2.5 3.3 4.8 4 0.8 0.9 0.5 0.8 1.9 0.8 0.4 1.1-0.2 1-0.3 1 0.1 1 1.2 0.9-1.1 0.5-0.6 1-0.4 1.4-0.1 1.7-0.7-1.8-1.5 0.1-5.1 2.8 0.1 2.7 1.6 5.6 0.4 2.4 1 1.8 1 1.4 0.4 1.1-0.2 1.2-1.4 2.8-0.5 1.3 0 1.1 0.3 1.3 0.1 1.5-0.4 1.6 1.1-0.1 1.2 0.4 0.9 0.8 0.3 1.4-0.4 0.6-3.1 1.2 0.7 0.9 0.9 0.6 1.2 0.3 1.4 0-0.7 1 0.6 0.1 1.5 0.7-0.6 1.1-0.1 0.9 0.2 0.8 0.5 0.7-0.5 0.3-0.4 0.4-0.3 0.4-0.2 0.8 2.5 1.5 0.8 1.2 0.3 2.2-0.2 2.8-0.4 1.4-2.3 2.5 1.4 0.8 0 1-1.4 0 0 0.8 0.6 0.1 0.1 0.4-0.1 0.6 0.1 0.7-0.1-0.3 0-0.4-0.2 0-0.4 0.7 1.3 1.3-0.9 1.4-1.8 1.7-1.4 1.8-1.1-0.8-4-1.6-1.6-0.3-1.8-0.6-0.7-1.6 0.1-4.9-0.7 0-1.5 0.8-0.9-2.4-1.1-5.5-0.4 0.3-1 0.7-0.8-2.2-1.6-2.1-1.9-1.4-1.4 0.3-0.5-0.5-0.4-0.2-0.3-0.4-0.3-0.7-0.6 0-0.6 2.7-1.1 0-1.1-0.4-0.7 1.3-0.2-0.9-0.1-0.7-0.3-0.3-0.9 0.1 0.6-1.6-0.4-1.4-2.2-2.4-0.3-2.5-4.3-6.3-0.4-1.9-1.7-0.8-1.7 0.3-1.8 0.9-1.8 0.5-0.1-0.7 0.1-0.2 0.9-0.5 0.4-0.3 0.1-0.9-1.6 0.7-0.9-0.8-0.8-1.2-1.3-0.6-1.4 0-1.3-0.2-1.1-0.5-0.8-1 3.7-3.4 1-1.9-0.8-2.4-0.9-0.9-0.7-0.1-0.7 0.3-0.9 0.3-3.9 0-1 0.2-0.7 0.7-0.5 0.6-0.6 0.2-2.4 0.2-1.1 0.3-1 0.5-4 3.5-1.7 0.9 3.5 1-2.1 0.8-8.1-0.8-10.6 0.8-3.8 2-3.1 2.4 0-0.4-0.4-0.7-1.4-3.8-3.2-5.9-3.5-4.7 0-0.1 2.5-0.3 7.4-2.3 1.7-1.9 1.8-0.5 1-0.7-0.7-1.5-1.6-1.6-1.9-0.5-0.1-0.7 0.1-1.1 1.3-0.2 2.3-0.5 1.3-0.2 0-1-1.1-0.1z m-2.7 71.8l0.4 0.2 4.1 3.2 0.7-1 3.8 3.8 0.5 0.1 0.5 0.1 0.9 0.4 2 1.8 1.1 0.6 1.4 0.3 2.4-1.6-0.1-3.4-1.9-3.4-2.9-1.3 0-0.9 1.7-1.4 2-0.8 5.2-0.5 1 1.6-0.4 3.4-1.4 3.6-1.7 2 1 1.1 1.1 0.8 1.3 0.5 1.5 0.3 0 1-2 0.7-0.8 0.1 0 0.8 0.7 0 0.9 0.4 2.7 0.5 2.3 1.6 2.1 0.7 4.7 4-0.5 0.6-0.2 0.3 0.2 0.2 0.5 0.7 0 0.9-2 1.1-6.1 2-0.5 0.1 0-2.2 0-1.1-1.1-1.6-4 0-2 1-5.1-1.3-1.8 0.4-3-3-1.8-0.3-3.1-2.3-5.1-1.6-1.5-1.7-0.7-1.9 0.7-3.5 2.2-5.5 0.1-0.5 0-0.1z m9.4 219.5l1.8 1.4 2.1 0.8 1.5 1.9 0.3 4.5-0.7 0-0.6-1.2-2.6-2.6-0.9-1.4-0.6-1.5-1-2.8 0.5 0 0.1 0.1 0 0.4 0.1 0.4z m-27.4-52.3l6.7 4.8 1.8 2.1 1 2.2-0.6 0.5-1.6 0.1-1.7 0.8-0.8 1.2-0.4 1.7-0.2 7.4-0.6 0.2-1.5-0.1-1.8-0.5-1.2 0.2-1.2 1.2-0.4-1.8-1-0.8-2.9-0.9-0.1-0.4 0.1-0.6 0.1-0.5-0.4-0.2-1.4 0.1-0.4-0.1-0.5-0.8-1-2-0.6-0.7 0.9-7.2-0.1-2.9-0.8-3-0.5-1.4-0.4-1.1 0.2-1.3 3.2-5.5 1.2-1 1.2 0.7 4.1 7.6 1.6 2z m12-125.7l0.6 0.4 1.7 1 0.8 0.7 0.4 1 0.2 1.3-0.2 1.3-1.1 0.5-2.1-0.5-1.3-1.2-1-1.4-1.5-1.4 0.7-0.8 0.9-0.6 0.9-0.3 1 0z m47.2-10.7l-1.7 1.6-2.4 1.1-2.5 0.4-1.9-0.4 0.4 2.6-1.2 1.3-2.2 0.4-2.3 0-5.8 1.7-2.3 0.1 0-0.9 9.2-6.2 2.4-0.8 4.6 0 2.1-0.9 3.6 0z m-11.3-24l0.4 0 0.2 0.2 0 0.3 0.1 0.4 0.8 1.3 0.9 0.9 1.1 0.4 1.4 0.2 0 0.8-1.9 1.1-2.6 0.4-2.6-0.3-2-1.2 0-0.8 2.9-0.8 1.1-0.9 0.2-2z m7-28.3l1.8 0.8-0.7 1.4-1.2 1.6 0.1 1.5-1.4 1.1-0.3 1.4 0.1 1.5-0.5 1.3-0.8 0.6-2.4 0.6-1 0.6-0.8-0.8-0.5-0.4-1.5-0.6 0-0.9 1.2-0.7-0.1-1.2-0.9-1.2-1.3-0.5-1.2-0.8-0.8-1.9-0.3-1.8 0.2-0.8 12.3-0.8z m-14.1-16.2l-0.7-0.9 0-0.8 0.7-1.3 1.5-1.5 1.7-0.8 3 1 1.3-1.3 1.1-1.9 0.6-1.4-1.3 0.1-0.9 0.7-0.8 0.7-0.9 0.4-0.9-0.2-1.9-0.8-1.1 0 3.6-1.8-1.3-0.7-1.6-1.1 1.2-0.1 1.1 0 1.1 0.4 0.9 0.7 0.2-1 0.2-0.2 0-0.1-0.4-0.5 0.8-0.6 0.8-0.3 0.9-0.1 2.4 0.3 1.2 0.6 0.7 0.9-0.5 1 0.1 0.7 0.2 0.9 0.6 0.7 0.6 0.5-0.1 0.1 0 0.7 2.8 0-3.5 1.7 0.5 1.4-2.3 1.9-0.3 2-0.7 0-1.1-1-0.9 0.8-1.1 1.4-1.5 0.7-1.5-0.2-3.2-0.9-1.3-0.8z m48.9 136.4l0.3 0.7 0.2 0.5-0.5 0.3-0.8-0.6 0-0.9 0.8 0z m-43.6-10l0.4 0.6 0.3 1.4-0.3 0.3-0.6-0.3-0.3-0.9-0.1-0.3-0.2-0.1 0.1-0.7-0.4-1 0.7 0.2 0.4 0.8z" id="GRA1" name="Attiki">
  </path>
  <path d="M412 540l0 0.1 3.5 4.7 3.2 5.9 1.4 3.8 0.4 0.7 0 0.4-1.8 1.3-4.9 2.5-4.3-1.8-1 0.4-0.8-0.1-0.9-0.2-1.1-0.1-0.4 0.6 0 1.5-0.1 1.5-0.9 0.7-0.7 1.3 0.5 2.5 1.3 2 2-0.5 1.8 1 2.5 0.3 2.4-0.3 1.7-1 3.3 3.3 1.9 1.4 1.9 0.8-0.5 1.2-0.1 1.3 0.1 1 0.5 1-1.4 0.2-1.9 1.2-2.3 0.4-0.3 0.4-0.1 0.8-0.4 1.3 2.6 2 1.4 0.6 1.7 0.2-1 2.9-0.2 2 0.3 2 0.9 2.8-1.4 0 0.2 2.8 0.4 1.2 1.9 0.7 0 0.1-0.1 0.5-2.2 5.5-0.7 3.5 0.7 1.9 1.5 1.7 5.1 1.6 3.1 2.3 1.8 0.3 3 3 1.8-0.4 5.1 1.3 2-1 4 0 1.1 1.6 0 1.1 0 2.2-12.2 0.6-1.7-0.3 0.1 0.4 0.1 0.4 0.1 0.5 0.3 0.5-3.7-0.6-1.4 0.2 0.2 1.3-3.5 0.8 0 1.3 0.7 0.6 1 0.1 1.1-0.2-0.7 0.9 0 0.8 0.8 0.2 2 0.8-1.6 0.8-1.9 0.2-3.8-0.2-2.2 0.4 0 1.1 0.9 1.7 0.9 2.1-2.1 0.4-1.5 0-1.2-0.5-1.5-0.8 0-0.9 2.1 0 0-0.8-1.2-0.4-1.5 0.3-1.3-0.1-1-1.5 2.2 0.9-0.5-1.3-0.8-0.8-2.2-1.6-0.8 0.9-1.1 0-1-0.6 0-0.3-0.3-4 0.3-1.6 1.1 0.8 1.2 0.7 1-1 0.8-1.8 0.1-1.9 2.3 1.3 0.6 0.5 0-0.8-0.5-1.2-0.2-0.8 0-1.2-0.3-0.8-0.7-0.3-0.8-0.2-0.6-0.5-1.5-0.7-3.6 0.9-1.7-0.6 1.4-0.9-1.4-2.6-2.5 1.5-1 0.8-0.7 1.2-1.4-4.7-1.1-1.7-1.7-1.6-0.5-0.2-1.2 0.2-0.4 0-0.4-0.4-0.2-0.6-0.1-0.6 0-0.2-1.5-0.6-0.9-0.2-1.2 0 1.3 0.4 0.4 0.4 0.4 1-2-0.9-1.8 0.2-1.6 1-1.6 1.3-0.7-0.7-2.8-1.9 0.2-0.5 0.5-1.3-1.3-0.5-1.2-1-0.6-1.1 0.3-0.9-1.1-1.6-1.1-1.1-2.2 1-1.9 1.1-1.2 1.9-0.3 3.2 0.2 0.6 1 1.6 0.2 0.8-0.2 0.8-0.4 1.6-0.1 0.7 0.5 1.4 0.5 0.8 0.6 0.6 0.5 0.8 0.1 0.7-0.1 2.4 0.2 0.4 1.3 1-0.1 1.3-0.7 1.8 0.1 1.3 5.3 6.4 1 0.6-0.7 1.9 1.4 0 0 0.8-0.7 0 0 0.8 1 1.1 2.5 4.4 0.7 2.4 3.5 6.3 0.4 0.4 0.8 1.2 0.5 1.4-0.6 0.6-0.5 0.8-0.3 1.6-0.3 3.4 0.9 1.6 1.9 0.4 2.1-0.2 1.4-0.5 0.1 0.6 0.2 0.3 0.2 0.3 0.3 0.5-0.7 0.5 0.1 0.1 0.6 0.3-0.8 1 1.8 0.6 0.8 1.1-0.2 0.6-1.6-0.7 0.9 2.3 2.8 4.1-0.2 1.6 0.9 2.1 0.5 2.3-0.5 0-1.1 0.1-0.5-0.1 0.2 0.7 0.8 1.3 0.4 0.6 0.2-0.4 0.1-0.1 0.1-0.1 0.3-0.2 0.4 1.2 0.1 1.1-0.1 1-0.4 1.1 1.1 1.7 2 5.2 0.8 1.1-0.4 1 1.4 2.2 2.8 2.9 0.7 1.4 0.2 1.4-0.3 1.1-1.2 0.5 0 0.8 1.1 0 0.8 0.2 1.5 0.7-0.4 1-1.2 0.9-0.4 0.8-0.1 0.7 0 0.4 0.1 0.4 0 0.6-0.6 1.4-1.3-0.1-1.4-0.8-1-0.9-0.9 1.4-1.3 1.4-0.5 1.2 1.3 1.3-0.2 0.4-0.3 0.9-0.2 0.4 2.8 0-2.5 2.3 0.1 3.3 1.5 3.4 2 3.2 1.1 2.3 0.4 0.4 2.1 0.9 1.1 0.9 2 0.9 0.4 0.6 0.2 0.6 0.5 0.5 1 0.1-1 0.7-0.4 0.2 0 0.8 0.6 0.7 0 0.7-0.4 0.6-0.9 0.6 1.7 2.6 3.1 1.9 2.2 2.1-0.7 3-3.5-1.8-1.1 1.4-1.3 0.2-4.5-1.2-1-1.3-0.7-1.5-1.3-1.1 0-0.8 0.6-1.7-0.7-2-1.4-1.7-1.6-0.7-4.4 0.9-2.1 0.1-0.9-1.4-0.5-2.1-2.3-5-0.8-1.3-1.1-1.1-4.5-3.3 1.5-1.5-0.5-1.5-4.3-3.9-0.5-0.2-0.4 1-1.4 1.7-0.5-0.7-0.1-1.1 0.6-3-0.3-2-0.9-2.7-0.7-4.7-1.5-2.2-2.2-1.4-2.9-0.6-5.3-0.1-6.5 0.8-4.6 2.6 0.2 5.5-3.4 2.4-1.3 1.8-0.9 2.9 1.6-0.1 1 0.9 0.4 1.6-0.2 1.9-0.7 0-0.2-0.9-0.3-0.9-0.7-0.7-0.9-0.1-0.8 0.7-0.6 1.2-0.1 1.1 0.4 0.5 1.7 1.5-0.5 2.6-1.3 1.2-0.9-2.7-1.5 0.9-0.6 1.3 0 7.5 0.3 2.9 0.6 2.4 1.9 5.1-0.4 0.7 0.4 1.1-1.3 0.9-0.5 1.4 0.3 1.5 0.8 1.5 0 0.8-0.9-0.1-0.3 0.4 0 0.7-0.2 0.8-1.1-1.4-0.4-2.2-0.1-2.4-0.5-1.9-1.5-1.2-3.6-1.5-1.3-1.7-0.7 0-1 1.1-1-0.3-1-0.9-0.8-1.2-1-1.9 0.1-1.4 0.6-1.4 0.6-1.8 1.7 0.5 0.5-1.5-0.5-2.1-1-1.3 0.5-0.7 0.9-1.9-2.1 0 0.2-1.6-0.1-2 0.3-1.5 1.7-0.2 0-0.9-2-0.7 0.3-2.2 1.7-4.1-3 0.5-2-3.1-1.6-4.1-1.8-2.2 0.1-2.5-1.6-3.3-7.2-9.9-2.2-1.1-2.5 1.9-2.8-2-1.1-1.3-0.4-1.9 0.2 0 0.5-0.7 0.5-1.1 0.2-1.3 0.2-1.5 0.5-2.5 0.1-3.5-0.2-0.9-6.9-1.6-3.9-0.2-1.8 0.5-3.9 2.5-3.9 1.1-1.2 1.3-0.6 1.7-1 12.3-0.5 1.5-0.1 1.2 0.5 1.5 0.6 1.1 0.3 1.1-0.7 1.6 1.8 1.7 1.1 0.7 1.4 0.2 0 0.9-1.4 0.1-1.2 0.5-0.6 0.9 0.3 1-0.6 1.2-4.3 4-0.6 0.6-0.6 0.4-0.9 0-1.7-3.6-0.4-0.3-3.1-6.6-1.9 0.1-1.5 0.4-2.7 1.3-1.2-1.3-2.4-1-0.6-1.2-0.7 0-0.9 0.5-0.6-1-0.5-1.6-0.8-1.4 0.4-1.3-0.1-1-0.3-1.3 0-1.8 0.3-1.2 1.3-2.1 0.5-1.1 0.1-2.2-0.8-1.9-1.5-0.9-2 0.6 0.9-0.4 0.3-0.5 0.2-0.8-1-0.1-0.5 0.4-0.6 1.4-0.7-4.5-2.6-3.4-3.1-3.2-2.1-3.9-0.9-5.1-0.3-5.2 0.7-4.7 1.9-3.5 6.4-5.3 2.8-3 1.4-4.2-0.4-5.2-1-2.9 1.6-0.7 6.9 1.4 3.7-0.8 3.4 0.9 1.9-1.1 3.7-4.7-0.8-1.9 0.7-1.6 2.6-3.1 1.7-1.5 2.2 1.7 1.9-0.7 1-1.6-2.9-3.7-9.5-7.5-3.3-1.3-1.9 0.4-1.7-0.2-0.2-14.2-2.1-6.4 0.5-5.2 5.9-9.7 3.8-0.8 0.8 3.6 3.7 1.3 3.2 2.3 7 3.3 1.8-0.1 2.6-3.1 2-0.7 3.5 0.2 0.4 1.8 1.7 0.7 1.9-0.8 2.7-3.1 5.8-2.2 0.7-2.1-0.8-1.9-1.5-1.6 0.3-3.5 1-1.7 0.3-2-0.3-2.2 0.6-1.7 7.8-3.3 2-1.5 1-1.6 0.7-1.7 0-1.8 2.9-6.6-2.5-4.4 0.6-3.6 0.4-1.5 0-0.1 0.6 0.6 3.2 1.3 1 0.9 1.1 0.5 1.1-0.5 0.7-0.2 8.1 1.8 11.2 6 6.2 2.2 0.9 1 0.9 0.3 8.2 7.3 1.9 3.1 0.6 0.4 2 0.6 3.2 2.9 1.5 1 1.6 0.2 1.6-0.2 2.4-0.9 0.8 0 0.9 0.1 0.8-0.1 0.7-0.4 2.1-3.2 0.2-0.7-1-1.5-1.5-1.5-1.2-0.7-1.6-0.5-2.5-2.1-1.9-0.2 0.3-0.4 0.4-0.2-3.5-0.2 2.2-1.8 1-0.7 1.4-0.2 1.3-0.5 2.3-2.4 1-0.7 2.7 0.2 5.1 2.2 2-0.6 3.1 1.4 0.8-0.1z m-134.9 168.9l1.7 0.9 0.1 1.4-0.3 2-0.1 2.7-0.6-0.8-0.4-0.3-0.2-0.4-0.2-1.1-1.4 1 0.6-3.7 0.4-1.4 0.4-0.3z m-7 1.8l0.1-4.6 0.4-1.9 0.9-1.4 0.5 0.3 0.4 0.4 0.5 0.2 0.7 0 0 0.8-0.5 0.2-0.5 0.4-0.4 0.3 0 1.4-0.6 1.1-0.8 1.3-0.7 1.5z" id="GRJ" name="Peloponnisos">
  </path>
  <path d="M338.1 526.5l0 0.1-0.4 1.5-0.6 3.6 2.5 4.4-2.9 6.6 0 1.8-0.7 1.7-1 1.6-2 1.5-7.8 3.3-0.6 1.7 0.3 2.2-0.3 2-1 1.7-0.3 3.5 1.5 1.6 0.8 1.9-0.7 2.1-5.8 2.2-2.7 3.1-1.9 0.8-1.7-0.7-0.4-1.8-3.5-0.2-2 0.7-2.6 3.1-1.8 0.1-7-3.3-3.2-2.3-3.7-1.3-0.8-3.6-3.8 0.8-5.9 9.7-0.5 5.2 2.1 6.4 0.2 14.2 1.7 0.2 1.9-0.4 3.3 1.3 9.5 7.5 2.9 3.7-1 1.6-1.9 0.7-2.2-1.7-1.7 1.5-2.6 3.1-0.7 1.6 0.8 1.9-3.7 4.7-1.9 1.1-3.4-0.9-3.7 0.8-6.9-1.4-1.6 0.7-0.7-2.2-7-13.3-3.9-6-2-2.1-8.8-6.3-2.2-1.1-1.1-1.2-2-2.6-1.1-1-6-1.8-2 0.6-0.5 3.5-0.7 0-0.2-1.2 0-1.3-0.2-1.2-1-0.8 1.3-2.7 0.4-2.1-0.3-2.2-1.7-5.9-1.1-1.7-1.4-1.1-4.5-2.4-10.8-3.3-1-0.8-0.5-1.6 0.4-1.9-0.6-1 2.8-8.9 0.7 0 2.5 2.2 4.5-2.2 4.5-3.9 2.6-3.2 1.5 0.5 1.2-0.8 1.1-1.3 1.2-1.1 0-1-0.4-0.2-0.1-0.1 0-0.2-0.2-0.3-1 0.5-1 0.7-0.9 0.7-0.7 0.7 4.7-7.1 0.2-0.9 3.6-5.8 0.5-1.4 0.2-1.6 0.2-7.9-0.1-2.1 1.1 1.2 1.3 2.4 1.1 0.9-0.1-1.5-0.2-1.3-0.5-0.9 0.5 0.8 1.5 0.8 1.9 0.2 2.2 0.1 1.4 0.5 5.2 3.9 8.1 1.9 2-0.4 2-0.9 3.4-2.3 2.7-3.4 4.1-8.4 2.3-3.4 7.9-5 0.9-1 6.8 1.4 2.2 0 1-0.2 0.9-0.6 1 0.9 1.3 0.8 1.5 0.7 1.6 0.2 1.3 0.5 0.6 1.1 0.4 1.5 0.8 1.5 1.1 0.9 3 1.5 1.2 0.2 0.8-0.1 1.1-0.6 0.5-0.1 0.9 0.9 0.7 0.6 0.9 0.3 0.6 0.7 1.1 3.3 0.8 1.4 0.8 0.4 3.7 1.3 0.4 0.3 0.3 0.6 0.6 0.6 0.9 0.3 3.1 0 4.5 1.1 1.2 0.7 1.9-0.8 1.6 1 1.1 1z m-133.3-115.2l-0.1-1.4 1-3.5 1.7-1.6 2-0.8 12.8-0.2 1.9-0.4 4-1.9 5.4-4.6 2.4-0.8 0 4.4 2.7 3.7 0.7 1.9-0.6 1.7 0.1 1.8-2.7 5 0.5 1.9 10.2 6.3 0.8 2.3-0.6 3.5 0.4 1.9 1.6 1.3 1.8 0.3 1.6 1.3 5.6 1.2 3.4 1.6 0 1.9-5.9 3-1.7 1.5-0.7 2.1 0 1.8 1.6 3.8 1.5 1.7 5.6 3.8 3.4 1.6 3.6 0.2 5.5-0.9 1.2 1.9-0.3 1.8 2.2-0.4 3.8-3-0.1-3.6 0.6-1.7 5.4 0.5 3.9-1.9 1.7-1.5 4.4-1.8 0.1 1.1 4 2.4 0 1.8-1.6 3.4 0.4 3.6-1.3 3.4 0.4 4.1-1.3 1.5 0 1.8 3.1 3.4-1.7 3.7 0.4 4-1 1.6-2 1.1-3.8 0.9-4.2 3.6-2.1 3.9 0.3 2.6-0.7 2.2-0.5-1-0.6-0.4-1 0.2-5 4.4-0.8 1.4-0.3 2.5-0.9 0.7-2-1.2-2.8-2.7-6 0-1.7 0.5-1.4 0.8-1.4 0.4-1.5-0.8-6.6 4.9-1.1 2.4-0.7 0-0.9-0.9-1.5-0.3-1.3-0.1-0.6-0.1-0.7-0.9-4.2-2.3 1.8-0.4 1.6 0.9 1.5 1.4 1.4 0.9 0-1-0.4-0.6-0.3-0.4 0.1-0.6 0.6-1-0.9-0.7-0.5-0.2 0-1 0.4-0.2 1-0.7-2 0 0.6-1.8-0.9 0.5-0.9 0.2-0.8-0.1-0.8-0.6-0.6 0.5-0.4 0.2-1.1 0.3 0.6-2.6-1.2-1.3-2.1-0.5-1.9-0.1-0.8-1.3-1-7.8-2.1-2.6-1.2-0.9-0.5-0.2-0.5 0.1-1 0.1 0.4 1.1 4.2 7-1.4 0 0.2 0.5 0.1 0.1 0.1 0 0.3 0.3-0.4 1.3-0.2 1.5-0.4 1.2-0.7 0.5-1.1 0.2-2.2 1.1-0.7 0.5 0.3 0.6 0.1 0 0.4 0.2-0.8 1-1.3-0.9-0.9 0.4-0.3 0.9 0.1 0.4 0.5 0.5-0.8 1-1.5 1.3-1.1 0.7-0.7 0.3-2-0.2-0.9-0.5-0.7-0.7-0.8-0.2-0.8 1.4 0.5 0.5 0.6 0.4 0.8 0.1-0.5 0.1-1.3 0.4-0.8 0.8-0.1 1.4-1.9-0.2-0.7-1.3-0.3-1.7-0.6-1.3-1.2-0.4-3.1-0.1-1.3-0.4 1.2-0.6 0.9-0.6 0.4-1-0.4-1.5-1 0.6-0.4 0.4 0.9-2 0.5-0.7-0.3 0.9 1.1 0.5 1.2-0.8 0.9-1.1 0.6-1.3-1.8-1.5-0.8 0-0.9 1.5-1.1-0.6-0.9-1-0.5-1.3-0.3-1.6 0.4-0.3 0.1 0 0-0.1 0.2-0.6 1 1.3 1.2 0.7 1-0.4 0.3-1.6-1.4 1 0.5-1.7-1-2.5 0.5-1.2 0-1-0.9 0-0.7-0.2-1.2-0.6 1-0.6 0.4-0.2 0.7-0.1-0.4-0.2-0.6-0.6-0.4-0.2 1-2.1 0.2-1-0.1-0.8-1-0.6-0.8 0.5-0.8 0.9-0.9 0.5-0.4 0.5-1.1 0.9-1.2 0.6-0.5-0.6-0.3-1.2-0.9-1.9-0.2-1.4 0.7-5.4 0.1-2.9-2.2-2.3-1.6-5-0.9-1.1-4 0-1.4-0.5-1.3-1.3-0.7-1.6-2.5-10.7-1-2.1-1.4-1-1.5 0.5-1.5 1.5-1.2 1.9-0.8 1.5-0.7-1.5-0.6 0.3-0.7 0.6-0.8-0.2-1.1 1-0.4-0.6-0.2-1.2-0.4-1-3.5-2.8 0-0.9 0.8-1.7 0.5-2.4 0.8-2.1 1.8-1 2.2 0.1 1.2-0.1 0.5-0.4-0.3-0.9-0.8-0.7-0.9-0.5-2.2-1.1-0.8-2-0.2-2.4 0.3-2 1.3-2.5 0.5 1 0.7 2.2 1.6 1.1 2 0.7 2-1 1.4-1.9 1-2.3 0.7 0 0.4 1.1 0.1 0.7-0.1 0.5-0.4 0.4 0.2 0.3 0.3 0.2 0.1 0.5-0.6 0.8 2.1 0.1 1.7-0.3 1.3-1 0.5-2.5 0.7 0 1 1.4 1 0.1 1.3-0.4 1.6-0.1 1.4 0.6 0.9 0.6 1.2 0.5 1.8 0.2 0.3 0.9-0.3 1.8-0.2 1.9 0.9 0.8 1.4 0.4 1.4 0.9 2.5 2.3 0.1-1.2 0.3-0.6 0.4-0.5 0.6-0.5 0-0.8-0.8-1.7 1.1-0.8 1.9 0.1 1.7 1 2.4 2.9 0 0.3 0.7 0.4 0.6 0.2 0.5-0.3 0.4-1.3-0.9-0.7-0.3-0.6-0.3-2-0.4-0.1-0.5 0.1-0.4-0.3-1.3-2.3-0.2-1.4 0.7-1.8-0.5-1 0.3-1.2 0.8-0.7 0.8 0.3 0-3.1-2.5-3.4-5.2-5.2-0.8 0.8-0.3 0.9 0 0.9 0.4 0.9-1.4-0.5-0.5 0.1z" id="GRG" name="Dytiki Ellada">
  </path>
  <path d="M520.1 949.5l-0.7 1.1-0.1 1.3 0.5 1.2 1 0.6 0 0.8-2.8-0.1-2.3-1.3-4.1-2.8 0-0.8 1.2 0 0.9-0.4 0.8-0.6 0.7-0.7 1.2-0.1 1.3 0.2 2.4 0.7 0 0.9z m225.3-57.8l-0.9 2.4-1.5 1.5-1.8 1.3-1.5 1.8 1.8 6.5 1.6 2.9 2.3-1.6-1 2-1.7 2-1 1.9 0.9 1.8-0.7 2.3-1 2.3-1.1 2-1.1 1.6-0.5 1.1-1.1 3-0.5 0.6-1.2 0.2-1.1 0.5-0.9 0.6-5.9 2.7-1.5 0.4-2.8 0-0.2-0.4-1.5-1.7-0.7-0.5-2.5-0.4-2 0.3-1.8-0.1-1.9-1.2-0.9-0.8-0.9-0.2-0.8 0.2-0.9 0.8-0.8 0.2-3.7-0.6-4.4 0.9-7.5 2.6-21.3-0.9-6.5 2-1.6 1-1.7 0.6-9.3-1.1-7 0.2-1.9 0.6-2.5 0.3-1 0.5-1.5 1-5.8 2.3-1.6 0.4-5.9-0.6-2.2 0.6-0.7 0.4-0.8 1-0.7 0.3-1.1 0-0.6-0.4-0.6-0.3-0.8-0.2-1.8 0.1-1.6 0.4-2.6 1.1-1.6-0.6-2-0.2-25.2 0.8 0-0.7 1.3-1.1 0.4-1.5-0.3-4.7 0.1-1.5 0.7-2.5-0.1-1.7-0.4-1.3-0.5-1.7-0.8-1.5-0.8-0.7-0.5-0.3-0.6-0.5-0.6-0.6-1.1-0.3-9.1-0.2-2.5-0.5-1.5-0.9-0.7 0-0.9 0.3-1.2-1-2.1-2.8-1.4-1-1.9-1-2-0.4-1.7 0.7-6.2-3.1-0.2-1.2 0-0.8-11.2 1.1-7.8-1.1-0.4-0.4-0.5-0.6-0.4-0.6-0.1-0.2-0.7 0-0.5 0.3-0.5 0.4-0.4 0.2-7.4 0-1.8-0.8-0.9 0-0.4 1.2-0.5-0.1-2.7 0.6-1.9-0.9-2.9-3.6-1.6-0.8-8.8 0.2-4.3-0.6-3.4-2.1-0.9 0.7-0.6 0.3-0.6 0-0.7-0.2-1.8 1.5-7.3-0.3-2.9 1.4-1.4-1.4-6 0.3-2.4-0.6-0.5-0.7 0.2-1.2-0.4-0.7-0.8-0.4-1.4-0.2-0.7-0.3-0.8-0.8-0.6-1-0.8-0.9-1.3-0.7 0.7-0.9-0.4 0-0.2-0.1-0.1-0.1 0-0.6 1.5-0.8 0.6-0.1 0.7-0.1 0.2-0.3-0.1-0.3 0.1-0.1 0.5 0-0.6-1-0.5-0.9-0.1-1.1 0.5-1.4-0.7-2.3 1.1-2.8 1.6-2.8 0.8-2-0.2-0.8-0.5-0.8-0.4-0.6-0.3 0 0.2-0.8 1-3.2 0.7-1.1 0.1-1-1.3-0.8 0-0.8 0.5-0.6 0.2-0.3-0.2-0.3-0.5-0.6 1.5-3.2 0.4-1.5-0.4-1.4 2-3.5 0.5-1.2 0.3 2.6 0 5.1 0.7 2.2 0.5 1.3 0.4 0.3 0.8 0.1 0.8 0.3 0.1 0.5-0.1 0.5 0.3 0.5 0.9 0.4 0.9 0.3 2.4 0.2 2.1-0.4 1.5-1.3 1-2.1 0.3-3.1-0.6-2.4-0.9-2.4-0.3-1.9 1.1-1.2-1-2.3-0.3-1.8 0.5-1.6 1.1-1.6 1.5-1.6 0.9 0.1 1 0.9 2 1 0 0.9-1.2 1.3 0 1.6 1.2 4-0.2 3.3 0.2 1 2.1 3.9 1.8 1.3 8.6 0.9 2.9 0.8 1.5-0.5 5.8 0.6 2.6-0.1 1.1-0.3 0.9-0.5 0.6-0.9 0.2-1.3 0.5-1 1.1-0.3 2.6 0.1-1.2-4.5 3.4-1.4 4.7 0.5 2.3 1.4 2.1 5.6-0.3 0.9-0.5 0.4-0.8 1.7-0.5 0.6-1 0.4-1 0.3-2.2 0.1-4-0.9-2.3-0.1-1.5 1 0.6 1.1 1.7 1.1 1.9 0.9 3.1 0.9 3.4 2.4 1.7 0.5 1.8-0.3 1.8-0.8 1.7-1.2 1.4-1.1 1.2 5.8 0.1 2.4-0.2 4.5 0.2 1.1 0.8 0.6 2.1 0.1 1 0.6 3.8 1.4 9.1-2.7 3.7 0.9 2.1-1.2 8.4-1.5 2.8-0.9 6.4-3.4 2.1-0.7 2.2-0.4 2.4-0.1 10.1 1.8 2.2 1.2 0.9-0.8 1.8-0.8 2.9-1 6.4 2.6 0.6-0.8 0.3-0.3 0.3-0.4 0.2-1.1 4.8 1.2 1.2 1.5 1.8-0.3 0.6 0.2 0.1 0.8-0.2 0.7-0.4 0.7-0.1 0.7 0.8 3.2 2.2 1.4 3.1 0.2 4.8-0.3 2.9-0.6 1.6 0.1 0.3 0.3 0.5 0.5 0.7 0.6 1 0.3 3.1 0 5.7-1 2.5 0.8 1.5 0.1 1.6-0.9 0.7 1 0.8-1 1.8 1.8 1.5 2.1 1.7 1.6 2.9 0.7 2.9-0.4 16.2-6.1 2.1-0.4 1.2 0.2 2.2 1.2 1.5 0.3 6.1 0-0.8 1.7-1.1 1.4-2.4 2.1 0.8 0.8-0.7 1.1-0.1 1 0.5 0.8 1 0.6-0.2-2.2 0.6-1 0.8 0.2 0.8 1.2-0.5 0.9 0 0.4 0.5 0.5-0.6 0.9-0.5-0.4-0.4-0.1-0.4 0.3-0.8 1 0.3 1.1-0.9 1.4-0.7 1.9 0.5 2.6-1.2 1 0.1 1.1 0.7 1.2 0.4 1.4 0.4 2.5 1 0.3 1.5-0.2 1.7 0.8 1.4 1.1 1.2 0.3 2.3-0.1 1.3-0.8 1.8-3.5 1.2-0.8 0.9-0.1 0.6-0.2 1-0.7 1.2-2.2 0.2-0.3 1.2-0.4 3.3-0.2 3.9-0.8 0.7-0.3 3.2-2.1 0.9-0.9 0.8-0.5 1-0.2 0.7 0.1 0.5-0.1 0.6-0.7 0.7 0 1.4 1.2 4 1-1.2 1.3 2.2 1.2 2.6-0.3 2.5-1.2 1.9-1.4-0.5-0.3 0-0.1-0.2-0.5 2.8-2.7 2-2.7 2.2-2 3.6-0.4-0.8-1.7 1.1 0.1 0.4-0.1-0.2-0.4-0.3-0.9-0.2-0.5 2.8 0z" id="GRM" name="Kriti">
  </path>
  <path d="M812.7 877.1l2.7-0.7 1-0.1 0.1 0.8-0.6 0.5-0.8 0.4 0.8 2.6 0 0.8-1.6 0-2.5 0.5-0.9 0.4-1.3 0.8-0.9 0.9-1 0.6-1.3 0.3-1 0.4-1.7 1.7-1.2 0.5-1.3-0.6-1.1-1.2-0.6-1.1 0.4-0.6 1-0.5 1.8-2.4 0.8-0.5 0.3-0.4 0.7-1.8 0.4-0.4 0.8 0.1 1.2 0.7 0.5 0 3.7-1.5 1.6-0.2z m24.2-11.3l2.2 2.1 0.4 1.4-0.5 2.7-2.6-0.7-2.7 1.1-2 2.4-0.5 3.2 0.3-0.4 0.1-0.4 0.4-0.2 0.7 0.1-0.5 1-0.8 1-1.1 0.9-1.2 0.6 0.7-2.1-0.8-0.7-1.4-0.2-1.3-0.5-0.9-1.1-0.7-1.5 0.1-1.2 1.5-0.6 0-0.7-0.7 0 0-0.9 1.7-0.5 0.1-1.3-1.1-3.5 0.1-1.7 0.3-1.1 0.1-1-0.5-1.3-0.8-0.7-2.7-1.7-0.7-1.1 0.1-1.7 0.8-1.7 0.9-1.3 0.7-0.5 2.4-1.5 0.8-3.2 0.5-3.3 2.7-3.1 0.7-3.7 0.1-3.8-0.6-2.2 0-0.8 1.5-1 0.7 0 0 1 0.7 0 0.6-0.8 1.5-1.9 0.9-0.7 0.7-0.2 0.6 0.3 0.6 0.6-0.4 1.7-1.4 2.4-0.3 1.6 0 3 0.1 1.1 0.6 1.3 0 1.1-0.6 0.9-1.2 1.2-1.2 1.5-0.5 2-0.4 1.1-1 1.2-1 1.5-0.5 2.2 0 2 0.2 0.8 2.7 2.1 2.5 4.5 0.7 0.7 0.5 0.4-0.4 0.9-0.8 0.9-0.4 0.3-0.1 0.9 0.1 0.1 0.7 0.7z m-151.7-109.5l1.4-0.5 1-1.1 0.9-0.7 3.6 1.5 3.4 3 2 0.4-0.9 1.7-0.9-0.2-1-1-1.1-0.5-1.6 0.3-1.2 0.6-1.4 0.3-2.6-0.5-0.5 0-0.3-0.1-0.7-1-0.4-0.8-0.2-0.9 0.5-0.5z m257.3-6.2l-1.4 1.8 1.1 5.8-2.1 1.2-0.5 0.7-0.7 4.5-0.7 1.4-2.3 2.7-0.5 1.6-0.2 3.6-0.5 1.5-0.9 0.7-0.7 0.8-1.3 3.9-0.5 1.3-0.3-0.2-1.8 0-0.7 0.2-0.3 0.5-0.1 0.9-0.4 0.8-1 0.4-2.5 6.1 1 0.7 0.8 0.5 0.8 0.3 1 0.2-0.3 1-0.4 0.9-0.6 0.8-0.8 0.8 0.4 0.6 1 2-5.4-1.6-2.1-0.1-2.4 0.9-4.6 2.9-1.7 1.7-4.1 6.8-2.9 3.9-3.8 3.5-4.8 3-4.2-2.9-0.7-0.3-0.2-0.8-1.9-3.9 1.4-1.9 2.9-8.9 0.6-3.1-0.3-2.9-1-1.5-1.4-1-2.5-2.9-0.2-0.6 0.6-1-0.1-0.6-1-0.8-0.6 0.1-0.6 0-0.7-1.1 1.7-0.6 4-2.8 2.5-0.9 0.8-0.7-0.4-1 0.9-0.8 0.2-0.7 0-0.8 0.2-1.1 0.7-1.6 0.7-1.2 1-2 0.4-0.5 3.1-0.9 0.4-0.5 0.8-1.1 3.4-3.6 0.8-1.4 1-0.9 6.1-2.2 11.5-6.2 1.5-1.2 3.3-1.6 6.8 0.4 3.1-4 0.8 0 0.9 0.8 0.9 1.4 0 0.8z m-293.6-6.1l3.7 1.2 3.5 2.6 2.8 3.3 1.2 3.4-0.2 2.5-1 2.6-1.5 2-1.9 0.7-2.1-0.2-4.7-1.4-1.9-1 1.2-0.6 2.4 0.1 1.3-0.3 1-0.9 1-1.9 0.8-0.7-0.7-3.4-0.5-1.2-0.9-0.7 0-0.8 0.6-1.6-1.5-0.9-4-1.1 0-0.9 0.5-0.2 0.4-0.3 0.5-0.3z m207 5.3l-1 2.3 1.3 1.3 2.1 0.2 1.9-1.2 0.3 0.4 0.2 0.4 0.1 0.9-0.6 1.3-1.1 1.2-1.2 0.6-1.2-0.4-0.6 0.6-0.9-0.6-1.2 0.2-1.4-1.4-0.7-2.2 0.5-1.9-1.4-0.8-1.1 0.4-1 1-0.7 1.2-0.7 0-0.6-1.2-1.3-0.9-0.2-1 0.1-2.6 0.1-1.2 0.4-1.1 1 2.1 1.5-0.6 1.7-1.5 1.5-0.8 1.3 1 1.3 3.6 1.6 0.7z m-106.3-25.5l3.2 0.2 3.8 2.3 3 2.8 0.7 1.8-0.7 0.6-0.5 0.1-0.5-0.5-0.5-1.1-1.6 1.4-1.4 0.5-3-0.2-1.4 0.5-1 1.1-1.5 2.9-0.1 1.7 0.2 1.6-0.8 0.8-2.5 0.2-1.7-0.7-1.9-3.5-1.7-1 0.2-0.9 0.2-0.3 0.4-0.5-1-1.5-0.3-1.9 0.6-1 1.4 0.8 1.5-0.9 1.7 1.1 1.7 1.6 1.4 0.8 0.9-0.5 1-1.7 0.6-0.4 1.1 0.2 0.9 0.2 0.8 0.1 1.1-0.5-1.4-0.8-0.6-1.2 0.4-1.1 0.1-0.3-1.1-0.4-0.9-0.7-0.8-0.8 0-0.9z m154.9 6.2l0.1 1.5 0.2 1.1 0.4 1-0.9 0.6-0.5 0.2 0.5 0.2 0.4 0.4 0.3 0.5 0.2 0.7-2.3 1.3-1.2 0.4-1.5 0 0-0.8 0.6-0.3 0.9-0.9 0.7-0.6-4.5-1.5-1.3-0.9 1.5-1.2-4.9 0 0.7-1.1 1.1-1.4 1-1.3 0.1-1.4 0.5 0 0.2-0.2 0.7-0.7 0 0.9 1.7-2.2 2.4-1.4 2-0.2 0.2 1.1-2.9 0.9-1.3 0.9-0.7 1.8 0.9-0.4 0.5 0 0.7 1.3 3.5-2.7 0.2 0.4 0.1 0.1 0.1 0.1 0.3 0.3-0.5 0.4-0.4 0.5-0.2 0.5-0.3 0.4 0.7-0.5 0.3 0.2 0 0.7-0.3 1.3z m-308.4-9.7l8.2 5.2 1.6 2.8 0 0.8-2.6-0.2-1.6-0.5-2.8-2.8-1.7-1.1-1.6-0.7-1.4-1.2-0.9-2.3 2.1-0.1 0.7 0.1z m28.6-7l4 0.1-0.3 0.3 0 0.6 0.1 0.8-5.6 5.8-3.7 3.1-2.7-0.2 3.9-7.9 1.2-0.4 2-1.8 1.1-0.4z m-69.1-3.5l4-2.2 2.1-0.5 1.3 1.8-0.3 1.4 0.3 7-0.9 0.9-2 1-3.4 1.1-12.4 0.3-3.8 1.5-0.4-1.8 0.8-2.8-0.4-1.6 0.4-0.3 0.5-0.8 0.5-0.5-1-0.8-0.4-0.2 1-1 0.8-2.3 1-1.1 0.5 0.7 0.6 0.7 0.8 0.7 0.9 0.5 1.4-0.3 1.2 3.7 2 1 3.5 0 1.1-0.6-0.3-1.4-0.9-1.5-0.9-0.9-1.4 0.8-1-0.8-0.9-1.4-1-1.2 0-0.8 1.2-1.4 1.3 0.8 1.8 1.5 2.4 0.8z m17.3-5.3l1.4 0.7 1 1.1 0.2 1.3-0.9 1.8-1.5 0.4-1.5-1.3-2.2-3.1 1.4-1.7 1.7 0 0.5 0.2-0.1 0.6z m64.8 8.8l0.2-0.3 0.1 0 0.1-0.2 0.3-0.4-0.9 0.1-2-0.1 0.5-1.2 0.6-1.7 0.3-1.6-0.3-0.7 4.6-3.5 1.3 1.6 1.7 3.1 1.2 1.4 1.8 1 1.9 0.6 1.6 0.9 1 2-1.3 0.2-0.7 0.9-0.1 1.2 0.6 1.2 0 0.8-2.2 3.2-3.7-1.9-6.6-6.6z m-68.3-14.9l0 0.9-0.8 0.9-2.9 5.1-1.7 0.2-1.7-0.5-0.7-0.9-0.3-1.5-0.6-0.9-0.3-0.9 0.5-1.5 0.9-0.9 1.3-0.8 1.5-0.4 1.2 0.3 0.7 0.6 0.6 0.2 0.6-0.1 0.9-0.7 0.2 0.4 0 0.2 0 0.2 0.6 0.1z m83.7 0.5l0.7-1.5 1.7-1.7 2.5-1.7 0.8 0-0.8 0.9 0.6 0.1 0.2 0.3-0.1 3.2-2 1.3-2.4 0.3-1.2-1.2z m190.9-9.7l1.1 2 5.1 1.3 1.5 2.4-3.3 1.9-11.3 3.2-2.4 1.4-6.2 6.7-2.2 0.3-2.6-0.4-2.4-0.8-1.3-1-5.7 2.8-1.7 1.6 1.1 2.7-1.5 0.5-0.6 1.3 0.1 1.8 0.6 1.7-1.8-0.4-1.8-1.4-1.5-1.7-0.5-1.3 0.2-4.5 0.6-1.9 1.2 0.7 0.5-0.7 1.2-1.3 0.5-0.7 0.5 0.4 2.3 1.4 1.4-1.4 0.8-1.2 1.4-2.7 3.5-3.1 0.6-0.8 10.6-6.7 10.4-1.6 1.6-0.5z m-171.8 3.1l0.6-1.3 1-0.7 1.3-0.5 1.3-1.1 1 0.5 2.5 2.1-1 1.5-2 0.1-2.4-0.5-2.3-0.1z m40.8-7.1l1.3 1.8 1.7 1.5 1.9 1.2 2.1 0.7 0.1 0.6-0.2 0.2-0.3 0-0.3 0.1-1.8-0.7-1.8 0.4-1.7 0.5-1-0.2-1.6 1.6-4.3 3.2-1.5 0.6-1.3 1.1-2.9 4.8-1.4 1.1-8.3 2.8-4.4 0.4-1.7-3.2 1.4 0.8 0.8-1.4 1.4-1 1.5-0.3 1.2 1 0.7 0 0.7-0.7 0.9-0.2 2.3 0 0.4-0.4 1.4-3.1-1.2 0.6-0.6-0.7-0.2-1.1 0.2-0.5 1.1-0.2 11.9-6.1 0-0.8-0.6-0.3-0.4-0.2-0.4-0.3-0.8-0.1 0-0.9 2.9-0.8 1.2-0.8 0.8-1 0.8 0z m-95-1.8l-1.5-0.3-2-1.8-1.7-2.6-0.5-2.4 1-1.8 1.8-1.6 2-1 1.6 0-1.9 6.8-1 2.1 0.6 0.6 0.6 0.6 1 1.4z m-38.8-10.6l1.3 1.9 3.6 4.5 1.3 3.7 0.2 1-0.4 0.5-1.4 0.7-0.3 0.5-3.6 4-1.5-2.4-1.8-3.6-1-3.5 0.8-1.9 0-0.9-1.1-0.9-1.2-2.2-1.2-0.4 0-0.7 0.1-0.4 0.6-0.8-0.4-0.1-0.2 0-0.1-0.2 0-0.6 1.4 0 2.4 2.1 1 0.5 0.8-0.8 0.7 0z m226.8 11.5l0.9-1.7 0.5-0.5 0.7-0.5-0.7-1.9 0.5-1.6 0.9-1.4 0.7-1.2 0.2-0.3 0.4-0.6 0.3-0.9-0.2-0.9-0.9-0.7-0.8 0.1-0.7 0.4-0.4 0.2-0.8-0.8-0.5-0.7-0.9-2-0.8-0.8-0.7-0.3-0.3-0.6 0.4-1.8 1.2 1.6 8.7 3.6 0 0.9-1.4 0 1 1.7 1.3 0.8 1.1 0.8 0.2 2.1 0.8-1.1 0.9-0.5 0.9 0 0.9 0.6 0.3 1.5-0.8 2.3 0.5 1.5-0.5 0.9-0.2 0.3-0.1 0.6 0.8 0 0-0.9 0.6 0-0.7 1.9-1.7 0-3.2-1-0.5 0.8-0.2 1.1-0.3 1.1-0.7 0.5-1-0.3-0.8-0.4-0.7-0.1-0.7 0.8-0.8-1.2-0.8-1-0.9-0.6-1 0.2z m-113.4-20.3l-0.2 0.6-0.1 0.1-0.4 0.3-2.1-3.6 1.8 0.1 1.2-0.5 2.6-1.4-0.3 1-0.4 0.8 0.9 1.3 0.5 0.4-0.5 1-0.8 0.7-1 0.1-1.2-0.9z m-54.2 7l-1.2 0.4-0.6 0.8-0.4 1.1-0.7 1.3-0.7 0.8-1.3 1.3-2.9 2-1.6 0.5-3.7-0.2-1-0.4-2.1-1.9-1.1-0.4-0.9-0.6 0-1.5 1-4.9 1.3-1.6 3.2-1.9-0.7-0.5-0.7-0.2-0.7 0.1 1.4-2.1 3-2.4 3.2-1.9 3-1-1.6 2.2 0.9 0.9 2.8 0.5 1.4-1.8-0.3-0.5-0.4-1.3 1.4-0.1 1.4 0.1-0.2 1-0.4 0.9-0.4 1-0.4 0.7-1.8 4.4 0 1.8 1.8 0.8 0 0.9-1.4 0 0 0.9 1.4 0 0 0.8z m25.3-19l0.8-0.5 1.7 0.9 2.5 1.9 1.2 2.3 0.6 2.4 0.3 5.5-0.3 2.4-1 5.3-0.2 2.8-2.9 6.3-0.5 0.5-0.8 0.1-1.4 0.6-3.6 3.6-1.2 0.4-1.9 0.5-1.2 0.8-0.2-0.8-0.4-0.2-0.7-0.7-0.4-1-0.7-2.5-0.3-1-0.7-0.8-2.8-1.8 0.4-0.7 0.1-0.7-0.3-0.8-0.6-0.9-0.5-1-0.1-1 0.2-0.8 0.1-0.3-1.6-3.1-1.2-1.6-1.4-0.6 0-0.9 0.6-0.5 0.5-0.2 0.5 0.1 0.5 0.6 1-0.7 3.9-4.5 6.7-4.9 0.6-0.8 1.5-2.7 0.7-0.4 2.1-0.2 0.4-0.4z m-111.2 2.3l-0.8-0.9 3.3-2.1 1.8-0.5 1.3 0.8 0.7 0 0.5-0.7 0.5-0.1 0.6 0.3 0.5 0.5 0.6 1.8 0.3 2.3 0 2.5-0.2 2.4-0.7-1.9-0.7 0 0 1.6-0.4 1.2-0.7 0.9-1 0.7-0.3-0.3 0-0.2-0.1-0.1-0.3-0.3-0.1-0.6 0.2-0.1 0.3 0 0.3-0.1-0.9-0.6-0.9-0.2-0.9 0.2-0.8 0.6-0.2-1.3-0.3-0.4-0.4 0.1-0.5 0.8-0.9-0.6-0.8 0-0.6 0.5-0.6 0.9-0.4-1.5 0.3-0.4 0.9-0.8-0.7-0.7-0.1-0.6 0.5-0.6 0.9-0.7-0.4-1 0.2-0.4 1-0.4z m-7.8-30.1l0.7-3.4 2.1-2.4 2.5-1.9 1.7-2 0.8 0 0 1.8-0.3 1-0.7 1.9-0.4 0.6 4 2.4 1.4 1.9-0.5 2.8-1.5-0.5-1.1 1.5-0.7 2.3-0.2 2-1.5 1.4-1.8 2-2.4 1.3-2.1 0.5 0.9-4.6 0.9-2 1.7-1.3 0-0.8-0.5-0.3-0.4-0.4-0.5-0.3 0-0.8 0.8-1.4-0.2-1.3-1-0.6-1.7 0.6z m105.5-0.8l-1.3-0.2-7.7 1 0.2-1 0-0.4-0.2-0.2 0-0.6 0.2-1 0.5-0.2 0.5 0 0.2-0.1 0.6-3.1-0.4-1.1-1.6-0.2 0.6-2 1.2-0.9 1.3-0.6 1.1-1.1 3 5.3 0.5-0.3 0.3-2.6 1-0.5 3.3 0.9 0.4 0.3 0.6 0.6 0.7 0.6 2 0.7 0.3 0.8-0.3 1.1-0.6 1.2-1.5 0.6-2 0-1.6 0.6-0.5 2.4-0.8 0z m-46.4-2.3l0.3 0.4 0.6 0.4 0.7 0.6 0.5 0.9 0.2 1.3-0.2 0.8-0.7 0.6-6.2 3.3-1.5 1-0.1-1.2 0.1-0.9 0.3-0.8 0.4-0.6 0-0.9-0.7 0-2.1 0 0.3-1.2 0.4-1 0.6-0.8 0.8-0.6-0.4-0.2-1-0.6 1.9-0.4 1.2-1.8 0.4-2.2 0-1.8-0.6-2.9-0.1-1.1 1 0 2.5 0.3 0.9 1.1 1 1.9 0.7 1.9 0.3 1.4-0.3 0.9-1 1.2-0.2 1z m15.2-19l-1.1-0.6-3.4-3.9-4-1.9-1.1-0.8-0.7-1-0.7-1.6-0.3-1.6 0.4-1.1 1.3-0.4 5.7 0.4 0.5 0.2 0.9 0.6 0 1-0.7 0 0 0.9 1 0 0.8 0.4 0.6 0.6 0.5 0.7 1.6-1.1 1.9 0.2 1.8 1.2 1 1.5 1.6-1.9 2.8 0.6 3.1 1.5 2.4 0.7-0.7 0.9 0.8 0.3 0.6 0.8 0.4 1.1 0.3 1.3-2.6 3.5-0.7 3.3-1.2 0.6-4.7-0.7-2.9-1.8-1.7-0.5-1-0.5-1.3-2.4-1.2-0.5z m-73.6-13.5l2.8 4-0.7 4-2.6 3.9-3 3.3-2.9 4-2 1.7-1.8-0.8-0.1-1.8 0.5-6.5-0.1-1.1-0.1-2.4 1.2-3 1.7-2 1.5 0.4 0.8-0.9 0.6-1-1.1 0.1-0.3-0.1 0-0.8 1-0.7 1-0.3 0.8 0.2 0.7 0.8 0.7 0 0-0.8 0.3-0.1 0.5 0 0.6-0.1z m63.4-10.6l0.2 1.8-0.9 2.4-1.4 2.2-1.4 1.6 0.2 0.5 0.4 2.1-0.6 0-0.8-1.2-2.4-1.9-1.1-1.2-1.9-5.5-0.6-0.8-1.5-0.2-1.2-0.5-1.1-1-1.1-1.5-1.6-3.2-1.2-0.9-1.7 1.1-0.6-3.6-1.9-2.4-2.3-1.9-1.5-2-0.7 0-0.8 1.3-0.8 0.4-0.5-0.7 0.7-1.9-0.9-1-1.5-2.4-1.2-1 1.3-0.4 0-0.6-0.4-0.9-0.2-1.2 0.3-1.2 0.9-0.9 5.7-3.1 2.2-0.5 1.5 0.8-0.1 1.4 0.2 0.8 0.6 0.4 1.1 0 1 0.5 1 0.9 0.4 1-0.4 0.4 0 0.6 0.7 2.9 0.4 0.9 0.7 0.5 2.8 1.2 8.1 0 1 1.2-0.5 2.6-1.6 4.3 4.3 3.6-0.7 0.6-0.3 0.1-0.4 0.2 0 1.6-0.6 1.1-0.8 0.9 0 0.9 0.7 0.7 1.6-0.7 1.2 0.8z m264.4 196l5.3 0.3 0.2 0.6 0 1.2-0.4 1.1-0.5 0.4-0.8 0-2 0.5-1.5-0.3-1.8-0.1-2 0.5-1.3-0.6-0.1-1.8 0.9-1.2 0.8-0.2 1.5-0.3 1.7-0.1z m-39-47.3l0.9 1.1 1.2 2.5-0.8 2.4-2.4 1-1.4 0-2.2-0.3-1-0.8-0.4-1.4 1.1-2.6 3.1-1.9 1.9 0z m-32.2-66.6l0.6 0.6 0.9 1.6 0 1.4-0.7 0.3-0.5 0 0 0.4-0.5 0.3-0.9 0.1-1.2-0.1-1.3-0.9 0-0.9 1.2-0.7 0.3-0.9-0.9-0.1-1.4 0.8-1.3-0.1-0.7-1.2 0.4-1.2 0.3-1-1.1-0.7-1.1-0.5-0.7-0.8-1.3-1-0.3-1.7 1.1-1.1 1.5 0.1 0.3-0.3-0.1-0.8 0.8-0.2 0.9 0.7 0.6 0.2 0.4-0.1 0.4 0.2 0.4 0.2 0.7 0.3 0.9 0.2 0.3 0.7-0.7 1.4-0.2 1.2 1 0.4 1.1 0.7 0.5 1.6 0.3 0.9z m-28.1-28.6l0.5 0.8 0.3 1.2-0.6 0.3-0.5-0.5-0.7-0.4-0.4-0.1-0.4-0.2-0.9 0-0.9 0.7-0.4 0.9-0.1 0.6-0.4 0.3-0.6 0.1 0.5 0.9 1.1 1.5 0.3 4.3-1.1 0.5-1.1-0.8 0.1-0.8-0.3-0.6-1.2-0.5-0.4-1.1 0.5-3.2 0.4-0.8 0.1-0.9-0.3-1.1-0.2-1.8 0.3-1.5 0.9-0.1 1.1 0.1 1.3-0.3 1.2 0.6 1 0.7 0.7 0.7 0.2 0.5z m-191.1-33.5l-0.1 0.8 0.3 1.6-2.3 0.3-4.7-0.9-1.3-0.9 1.8-0.3 1.7-0.7 1-1.3 1.2-0.8 1.8-0.1 0.8 0.8-0.2 1.5z" id="GRL" name="Notio Aigaio">
  </path>
  <path d="M749.6 588.6l-1.8 3.5-2.6 3.3-9.1 8.1-1.8 0.8-8.8 1.3-2 0.8-1.1 0.8-2 2-1.1 0.8-1 0.3-0.7 0-0.8-0.2-1.4-0.1-4 1.1-1.5-0.4-0.4-2.5 0.8-1.7 3.3-3.4 0.8-1.5 0.7-1.9 1.6-2.1 1.9-1.8 1.4-0.9 2.5-0.1 5.9 0.8 2.2-0.7 2.1 0.7 3-0.9 2.8-1.6 2.7-3.1 3.4-1 5-0.4z m70.4-5.3l1.2-0.8 0.6 0.6 0.2 1.4-0.6 1.5-2.5-0.8-3.7 0.8-9.3 3.7-1 0.6-1.1 1.1-0.6 0.9-0.2 0.6-0.3 0.6-1 0.5-0.9 0.2-6.5-0.2-1-0.3-0.4-0.8-0.3-1-0.4-1-1.6-2.7-1.1-0.9-2.4-0.7-1.1-1.2-0.9-0.3-0.9 0.1-1.6 0.6-2.7 0.4-1.7 0.7-1.3 1.2-0.5 1.5-0.8 0 0-1-0.6 0-1.1 1.2-1-1.3-0.6-2.2-0.2-1.6-0.1-3.2 0.4-1.4 1.1-1.2 1.8-0.6 1.8-0.2 1.4-0.7 0.6-1.6 0.9-1 11.7-2.8 3.5 0 3.7 0.7 1.4 0.8 2.7 2.3 3.6 0.9 3.9 2.8 1.1 1.1 0.4-1.4-0.6-1.1-1-1.2-0.9-1.6 1.7 0.6 1.2 0 1-0.6 1-0.9 0.1 1.5 2.8 0.9 4.8 0.4-2.9 1.3-0.6 0.4-0.2 1 0.4 1 0.7 1 0.5 1.4z m-90.8-106.5l-1.3 1.6-0.2 2.6-0.5 2.3-2.3 0.7 0.8 1.2 0.4 0.4 0.9 0.2-0.6 0.8 1.8 0.1 0.1 0.8-1.3 1.9-0.3 2 0 1.6 1.1 9.9 1.4 5.4-2.7 0.4-2.5 2-1.1 2.9 1 3.2 0 1.9-2.5 1.3-4.9 1.7-0.8 1.3-0.7 3-0.6 1-1 0.4-2.1-1-1.5-0.3-1.1-0.7-2.2-3-0.5-0.2-0.4 0.1-1-1-1-1.6-0.4-1.5-0.5 0.2-1.2 0.4-0.4 0.2 0-0.9-0.1-1.8 0.1-0.9-1.7 1.1-0.8-0.8 0.2-1.8 0.9-2.1 1-0.8 1.3-0.5 1.9-0.4 0.5-0.5 1.2-1.3 2.5 0.2 0.6-0.2 0.7-1.6 0-1.6 0.5-1.4 1.7-0.8-0.6-1.5 0.2-3.2-0.3-1.6-0.2 0.5 0 0.1-0.1 0-0.5 0.3-0.5-1-0.6-0.8-0.8-0.5-0.9-0.4 0.6-1.2-0.1-1.8-0.5-1.9-0.7-1.4-1.2-1.3-1.2-0.4-1.3-0.3-1.8-0.7-1.5-1.3-3.3-4.1-0.9-1.8-0.2-2 0.5-1.5 0.8-1.4 0.3-1.9 15.1-3.1 2.1 0.3 4.9 1.6 0.3 0.9 4.3 5.3 0.3-0.6 0.1-0.6 0.3-0.5 0.7-0.1 0.1-0.6-0.2-0.2-0.2 0-0.3-0.1 1.5-0.5 1.3 0.3 1.2 1.1 0.9 1.8z m-59.1-9.1l0.7 1 2.8 2.7 0 0.6-0.1 0.2-0.3 0-0.4 0.1-0.8 4.6-0.2 0.8-1.4-0.2-1.1-0.4-1-0.1-1.1 0.7-0.3-1.2 0.2-0.8 0.3-0.8-0.2-0.8-0.4-0.6-1.2-1.2-0.5-0.9-1.2-1.1-0.5-0.7 0.3-0.9 0.7-0.4 0.6 0.3 0.5 0.6 0.3 0.4 0.6-0.9 0.8-0.7 0.8-0.1 0.7 0.8 0.6 0 0-1 0.8 0z m105.2-57.7l0 1.2-0.2 2.3-1.3 1.4-3.1-1.3-1.7 0.9-1.2-0.5-1-1.3-1.1-1 0.8-0.8-0.9-0.7-0.2-0.6 0.2-0.7 0.1-0.7 0.1-0.5 0.6-1.4 0.1-0.8-1.2-1-0.2-0.5-0.7-1.9-1.8-0.6-3.5 0.3-1.8 1 1.6 2.3 4 3.1 3.8 5.5 1.9 1.6 0 1-0.3 0.6-0.1 0 0.1 0.1 0.3 1.1-2.7 1.2-3.3 0.8-6.6 0.7-1.8-0.3-3.3-1.2-3.7-0.5-1.4-0.7-2.5-1.8-2.5-1.2-6.1-1.3-5.3-0.2-1.1-0.4-0.9-0.9-3.2-4.6-1.1-1.1-1.7-0.3 0-0.8 0.6-0.3 0.9-0.7 0.7-0.2 0.4 0 0.4 0.2 0.5 0 3.9-0.9 0.5-0.4 1.6-2.7 1.1-0.9 1.2-0.2 1.1 0 1.3-0.3 2.7-2.7 3.1-2.4 0.1-0.4 1-0.5-0.3-1.3-1.1-1.3-1-0.6-3.3-0.8-1.2-0.1-2.2 0.3-1.8 0.5-1.4 0.9-1.4 1.5-1.5 3.7-0.3 0-4.6 6.6-1.5 1.4-2 0.6-2.1-0.3-8.7-3.3-1.5-0.9-1.5-1.1-1-0.5-1.3-0.2-1.8-0.8-3.6-3.7-2-1 0-1 1.1-0.4 0.5-1.2 0.1-1.5 0.4-1.4-0.4-0.1-0.3-0.2-0.3-0.3-0.4-0.3 0.8-0.5 0.4-0.6 0.2-0.8 0-1.3 0.4-0.9 0.8-0.6 1-0.3 0.7-0.4 2.8-2.8 0.7-0.9 0.7 0 1.2 2.7 3.4-0.3 3.8-1 2.8 0.5 0.4-0.8 0.4-0.5 0.4-0.6 0.2-0.9 0.6 1.3 0.1 0.6 0.7 0 1.3-1.9 2.1-0.9 4.4-0.8 2.7-1 1-1.5-0.2-2.4-0.7-3.4 18.4-0.6 2 0.6-0.8 3 1.9 1.2 2.8 0.8 1.8 1.4-0.7 1.3-3.2 5.1 0.2 0.7 4.4 4.3 3.5 1.4 0.8 0.7 0.4 0.5 3.5 5.3 1.4 1.2 2.2 1.3-1.3 1 0.4 1.1 0.7 1 1 1 0 1.3 0.3 0.8 0.7 0.3 1.1-0.1-0.1 2.7 1.3 2.9 1.9 2.5 1.5 1z m-164.4-68.3l3.6 2.4-0.7 3.3-5 7.2-0.7 0-1.2-6.4 0.3-3 2.2-1.7-0.3-1.1 0.2-0.5 0.7-0.2 0.9 0z m44.9-63.2l-0.8 1.4-0.5 0.4 0 0.9 0.5-0.1 0.1 0.2 0 0.4 0.3 1.2 0.2 1.4 0.2 0.6-2.4 1.4-2.5 1.9-1.7 2.6 0.4 3.3-1.4 0-1.2 0.3-0.9 0.7-0.7 0.8 1.4 0.9 0.7 0.1-1.6 0.8-1.2 1.2-0.1 1.3 1.5 1.2-1.3 1.4 0.6 1.5 1.3 1.3 0.8 1.3 0.1 0.9-0.1 0.2-0.5 0-0.9 0.8-0.1 0.9-0.1 1.3-0.4 0.8-1.1-0.8-0.6-0.3-3-1-0.8-0.6-0.2-1.3 0-1.2-0.3-0.6-1.8-0.6-1.7-2.7-1.8-0.3 2.3-1.7 1.3-1.3 0.6-1.2-0.5-1.9-1.2-1.3-1.3-0.7-1.2-0.2-4.3 3.6 0.9 0 0.8 0.2 0.6 0.3 0.6 0.5-1.9 0.3-1.3 1.3-1 1.8-0.8 2 0.9-0.4 0.2-0.1 0.3-0.4 1.2 1.4 1.3 2.2 0.6 2-0.6 0.9-2.3-0.2-1.8-0.3-3.3-1.4 2.4-3.7 0.4-0.4-0.5-1.5-1.2 0.5-1.2 1.3-0.6 1.1-0.7 0-0.1-1-0.2-0.6-0.2-0.5-0.2-0.6-6 1.8-1.1 0.9-0.6 0 0.3-0.8 0.4-0.7 0.5-0.6 0.8-0.6-0.5-0.3-0.8-0.5-0.7-0.2 0.1-1.2-0.1-0.6 0.6-0.5 0.7-0.4 0-1-0.7 0 0-0.8 0.5-0.2 0.2-0.2 0.7-0.6-0.7 0 0.8-1.9-0.4-1.2-1-1-0.7-1.4-0.1-1.9 0.1-1.8-0.2-1.3-1.2-0.5 0-0.9 3.6-0.2 6.5-1.6 1 0.2 0.7 0.7 0.4 0.6 0.4 0.3 1.6-0.2 5.5-1.6 2.2 0.8 1.4 1.6 1.2 1.9 1.5 2.1-0.2 1 2.3-0.9 2.8-1.6 1.4-1.3 0-1.2 2.2-3.2 1.3-1.1 0.4 0.1 2.7-0.1 0.9-0.2 2.9-1.6z" id="GRK" name="Voreio Aigaio">
  </path>
  <path d="M188.5 574.8l1.7 3.6 7.1 4.6 0.9 3.9-1.3-1.7-3-1.5-3.4-1-2.8-0.2-1.5 0.7-0.9 1.2-0.7 1.1-0.7 0.5-1.4 0.6 0.1 1.6 0.5 1.5 0.4 0.7-0.2 1.7-0.4 0.8-1.1 0.2-2.2 0-0.7-0.5-3.2-4-5-4.2-2.5-2.5-0.2-2.1-2.2-2-3.9-5.4-2.4-1.5 0.7-1.5-0.4-2.2 0.6-0.8-0.9-0.9 4.2-6 2.6-2.5 2.4 0.6 0.1 0.4 0 0.3 0.5 0.6-0.1 0.2 2.1 4.1 0.8 2.5 1.1 1 2.5 1.5 3.3-0.8 4.2 1.7 3.7 2.9 1.6 2.8z m-17.3-35.1l-1.5-0.5-1.3-1.3-2.5-2.9-2.9-1.7-4-1.1-3.5 0.5-1.6 3.3-1.9-1.5-3.8-1.1-1.4-1.8-0.3-1.2-0.2-2.4-0.2-1-1.6-3-0.5-1.4 1.3 0.4 1.7 1.7 1.2 0.6 0-0.9-1.6-1.6-1-2-2.8-7.1-1.2-2-1-0.3-0.8 2.2 0.1 2.1 0.8 4.4-0.2 2.5-0.9 2.3-1.4 1-1.4 0.6-1.2 1.5-0.7 0-0.6-2.3-2.9-1.7-0.7-2.3 0.4-1.1 0.8-1.3 0.6-1.3-0.1-1.2-0.4-1.1 0.2-1 0.6-0.7 0.6-0.4 1.5-1.6 1.3-3.4 0.6-4.3 0.2-4.1 0.5 1.9 0.2 0.8 0.7 0 1.4-2.6 0.8 1 0.7 2.4 1.3 1.9 0.9-1.1 0.4 0.7 0.3 1.4 0.9 0.8 1-0.5 1.8-1.9 2.4-1.3 0.9-2.2 0.1-2.6-0.9-2.3 2.1 0.9-1.2-4.4-0.2-1 0.2-1.7 0.4-1.5 0-1.2-0.6-1.1 0-0.8 3.5 0 5.6 16 0.2 1.1-0.2 2-0.6 1.1-1 0.9-1.2 1.4 0.9 1.2 2.4 4.6 1.2 0.6 1.5-1.2 1.4-1.7 1.1-0.8-0.2 0.4-0.3 0.9-0.2 0.5 1.9 0.4 0.6 1.4 0.3 1.8 0.7 1.8 4.4 3.9 1.1 3.5 3.6 5.1 0.8 2 0.3 2.1-0.3 2.2-1.1 2.2-0.5 0.1-2.7-0.6-0.9 0.1-1.1 0.7-1.1 0.2z m-1.8-43.1l1.3 0.3 1.1 0.7 1.9 1.6-0.5 0-1.5 0 0.6 3.6 0.6 1.3 1.4 0.5 0 1-2.8 0.4-1.7 0.6-1.4-0.4-1.9-2.4 0.8-0.9-1.5-1.7-1.4-2-2-4.4-0.2-1-0.3-3-0.3-1.4-0.7-0.8-1.2-0.8-0.7-1.1 0.5-1.9 1.7 1.1 0.9-0.7 1-3.1 1.8 0.6 0.2 1.7-0.6 1.8-0.7 1.3 1.8-0.1 1.1 0.5 0.9 0.8 1.1 0.7-0.6 2.7-0.8 2.3-2.1 4 0.8 0.5 1 0.4 1.2 0.1 1.2-0.2 0-0.8-1.4-0.9 2.1 0-0.7-0.9z m23.2-27.9l-2.3 3.3-1 2.1-0.2 1.9-1.4 0 0-1 3.9-6.1 1-0.2z m-36.6-1.8l-0.9 1.3-1.1 1.9-1.5 3.2-0.7 0 0.1-3.4 1.8-12.7 1.9-4.3 0.4-2.7 1.8-4.9 1-0.5 0.8-1.3 1.3-2.8 1.3-1.5 1.9-1.7 2.3-1.2 0.2 0.5 0.2 0.7 1.2 0.5 1.6 1.9 0.4 2 0.1 1.9 0.7 1.5-0.6 1.6 0.1 1.2 0.3 1.1 0.2 1 0.1 1.2-0.1 0.7-0.4 0.7-2.4 3.6-0.5 1 0.2 1 0.7 0.3 0.5-1 0.5-1.5 0.7-1.1 0.1 2-0.3 7.1-0.5 1.5-0.6 0.2-0.8-1.7-0.7 0 0.2 0.6 0.5 2.1-0.4-0.3-1.1-0.6 0 1-0.2 0.5-0.2 0.4-0.2 0.8-1.7-0.9-1.7 0.3-0.8 1.1 0.7 1.4 0 0.8-1.1-0.1-0.6-0.5-0.2-0.9 0.4-1.2-2-0.4-1.1-2.6-1.8 1.2z m-45.7-82.4l1.6 1.8 1.8 1.4 1.7 2 1.2 3-2.1 0-1.3-0.4-1-0.8-2.1-2.7-1.1-1.8-0.3-1.7 1.6-0.8z m-5-25.5l0.5 1.4 0.9 4.1 1.3 1.9 0 0.9-1.3 0.9-0.9-0.8-2.5-0.8-2.4-1.7-1.7-0.8-1.8-0.4-1.6-0.1-0.9-0.6-2.6-2.3-1.1-0.7-1.7-0.2-1.5 0-1.2-0.4-0.4-0.6 0.7 0.2 0.7-0.6 0.6-1.2-3.5-1.2-1.4-0.6 0 0.3-0.1 0.5 0 0.2-1.3-2-1.1-2.8-0.8-2.7-0.7-5.7-1.2-2.7-2-2.2-2.6-2-2.4-1.2-1.3-0.9-2.7-6.2-0.3-0.9-1.8 0-1.2-0.1-0.9-0.8-0.7-1.8 0.3-3.1-0.6-1-1.9 1.2 0.1-2.1-0.4-1.5-0.9-0.8-1.5 0 1-1.1 2.7-3.8 0.5-1.2 1-0.2 9.5-0.4 3-0.6 2.7-1.2 2.7-1.7 1.5 0.4 0.9 0.8 0.8 0.8 1.1 0.8 2.6 0.9 1.1 0.6 0.5 1.2 0.7 0 0-1 0.7 0-0.1 4.2-1.3 2.4-2.2 1.4-6.3 2.7-1 0.8-0.6 1.6 0.3 1.7 0.9 1.3 1.1 0.5 0 1-1.4 0 0 0.8 6.1 3.2 2.4 0.5-0.4 2.9-0.6 0.6-1.8-0.7 1.2 2.8 2.1 13.9 0.4 0.8 1.2 0.8 1.4 0.5 2.9 0.6 1.3 0.6 2.2 1.7 0.9 0.3 1.9-0.2 1.5-0.5 0.9-0.6 0.8 0.2 1 1.8z m87.7 103.3l0.7 0.5 0.1 1.3-1.2 1.5-1.3 1.1-1.5 0.9-0.8 0.4-0.8 0.5-1.2 1.2-0.8 1.6-0.9 0.3-0.3-1.3 0.3-1.5 1.8-3.4 1.6-1.8 1.8-0.7 2.5-0.6z m-14.8-1.6l0.4-0.1 0 0.5-0.3 0.7-0.6 0.7-0.8 0.9-2.6 0.7-0.4 1.5 1.4 1.2 0.9 0.9 0.1 0.3 0.8 0.6 1 1.2-1.4-0.5-3.6-3.5-1.5-3.4 1-1.5 1.6-0.3 2.1-1.2 0.6 0.5 0.4 0.3 0.5-0.2 0.3 0.2-0.1 0.4 0.2 0.1z" id="GRF" name="Ionioi Nisoi">
  </path>
 </g>
 <g id="points">
  <circle class="35.16178214607579|20.05713951257528" cx="101.7" cy="911.1" id="0">
  </circle>
  <circle class="37.93596899106877|24.363780142147977" cx="544.3" cy="556.2" id="1">
  </circle>
  <circle class="41.40370254731|27.809092645806135" cx="898.3" cy="93.1" id="2">
  </circle>
 </g>
 <g id="label_points">
  <circle class="Dytiki Makedonia" cx="243.6" cy="237.5" id="GRC">
  </circle>
  <circle class="Ipeiros" cx="169.6" cy="336.5" id="GRD">
  </circle>
  <circle class="Kentriki Makedonia" cx="430.4" cy="164.7" id="GRB">
  </circle>
  <circle class="Anatoliki Makedonia kai Thraki" cx="584" cy="132.9" id="GRA">
  </circle>
  <circle class="Ayion Oros" cx="532" cy="250.4" id="GR69">
  </circle>
  <circle class="Thessalia" cx="321.4" cy="337.3" id="GRE">
  </circle>
  <circle class="Stereá Elláda" cx="329.2" cy="451.4" id="GRH">
  </circle>
  <circle class="Attiki" cx="486" cy="535.4" id="GRA1">
  </circle>
  <circle class="Peloponnisos" cx="340.1" cy="633.2" id="GRJ">
  </circle>
  <circle class="Dytiki Ellada" cx="254.9" cy="562" id="GRG">
  </circle>
  <circle class="Kriti" cx="603.9" cy="909.7" id="GRM">
  </circle>
  <circle class="Notio Aigaio" cx="912.4" cy="780.3" id="GRL">
  </circle>
  <circle class="Voreio Aigaio" cx="740.1" cy="378" id="GRK">
  </circle>
  <circle class="Ionioi Nisoi" cx="71.9" cy="319.9" id="GRF">
  </circle>
 </g>
</svg>